<svg xmlns="http://www.w3.org/2000/svg" viewBox="0 0 51 51" clip-rule="evenodd" stroke-linecap="round" stroke-linejoin="round"><path stroke="#000" stroke-width=".2" d="M1.2 1.2h4.79M1.2 1.2v4.79M5.99 1.2h4.815M10.805 1.2v4.79M10.805 1.2h4.79M15.595 1.2v4.79M10.805 1.2v4.79M15.595 1.2h4.815M15.595 1.2v4.79M20.41 1.2h4.79M20.41 5.99h4.79M25.2 1.2h4.79M29.99 1.2v4.79M29.99 1.2h4.815M29.99 1.2v4.79M34.805 1.2h4.79M39.595 1.2v4.79M34.805 5.99h4.79M39.595 1.2h4.815M39.595 1.2v4.79M44.41 1.2h4.79M49.2 1.2v4.79M44.41 5.99h4.79M5.99 5.99v4.815M1.2 5.99v4.815M5.99 10.805h4.815M5.99 5.99v4.815M15.595 5.99v4.815M10.805 10.805h4.79M15.595 10.805h4.815M15.595 5.99v4.815M20.41 5.99h4.79M25.2 5.99v4.815M29.99 5.99v4.815M25.2 5.99v4.815M29.99 10.805h4.815M29.99 5.99v4.815M34.805 5.99h4.79M39.595 5.99v4.815M39.595 10.805h4.815M39.595 5.99v4.815M44.41 5.99h4.79M49.2 5.99v4.815M1.2 15.595h4.79M1.2 10.805v4.79M5.99 10.805h4.815M10.805 10.805h4.79M10.805 15.595h4.79M15.595 10.805h4.815M15.595 15.595h4.815M25.2 10.805v4.79M20.41 15.595h4.79M25.2 15.595h4.79M25.2 10.805v4.79M29.99 10.805h4.815M39.595 10.805v4.79M34.805 15.595h4.79M39.595 10.805h4.815M39.595 10.805v4.79M49.2 10.805v4.79M1.2 15.595h4.79M5.99 15.595v4.815M1.2 15.595v4.815M5.99 20.41h4.815M5.99 15.595v4.815M10.805 15.595h4.79M10.805 20.41h4.79M15.595 15.595h4.815M20.41 15.595v4.815M20.41 15.595h4.79M20.41 15.595v4.815M25.2 15.595h4.79M29.99 15.595v4.815M25.2 20.41h4.79M29.99 20.41h4.815M29.99 15.595v4.815M34.805 15.595h4.79M34.805 20.41h4.79M44.41 15.595v4.815M39.595 20.41h4.815M49.2 15.595v4.815M44.41 15.595v4.815M1.2 25.2h4.79M1.2 20.41v4.79M5.99 20.41h4.815M10.805 20.41h4.79M20.41 20.41v4.79M15.595 25.2h4.815M20.41 25.2h4.79M20.41 20.41v4.79M25.2 20.41h4.79M29.99 20.41v4.79M29.99 20.41h4.815M29.99 20.41v4.79M34.805 20.41h4.79M39.595 20.41h4.815M44.41 20.41v4.79M49.2 20.41v4.79M44.41 20.41v4.79M1.2 25.2h4.79M1.2 25.2v4.79M10.805 25.2v4.79M5.99 29.99h4.815M15.595 25.2v4.79M10.805 29.99h4.79M10.805 25.2v4.79M15.595 25.2h4.815M15.595 25.2v4.79M20.41 25.2h4.79M25.2 25.2v4.79M25.2 29.99h4.79M25.2 25.2v4.79M34.805 25.2v4.79M29.99 29.99h4.815M39.595 25.2v4.79M34.805 29.99h4.79M34.805 25.2v4.79M44.41 25.2v4.79M39.595 25.2v4.79M49.2 25.2v4.79M44.41 25.2v4.79M5.99 29.99v4.815M1.2 29.99v4.815M5.99 29.99h4.815M5.99 29.99v4.815M10.805 29.99h4.79M15.595 29.99v4.815M20.41 29.99v4.815M15.595 29.99v4.815M25.2 29.99v4.815M20.41 29.99v4.815M25.2 29.99h4.79M29.99 29.99v4.815M25.2 29.99v4.815M29.99 29.99h4.815M29.99 29.99v4.815M34.805 29.99h4.79M39.595 29.99v4.815M44.41 29.99v4.815M39.595 29.99v4.815M49.2 29.99v4.815M44.41 29.99v4.815M5.99 34.805v4.79M1.2 34.805v4.79M10.805 34.805v4.79M5.99 34.805v4.79M10.805 39.595h4.79M10.805 34.805v4.79M20.41 34.805v4.79M15.595 39.595h4.815M20.41 39.595h4.79M20.41 34.805v4.79M29.99 34.805v4.79M25.2 39.595h4.79M34.805 34.805v4.79M29.99 34.805v4.79M34.805 39.595h4.79M34.805 34.805v4.79M44.41 34.805v4.79M39.595 39.595h4.815M49.2 34.805v4.79M44.41 34.805v4.79M1.2 44.41h4.79M1.2 39.595v4.815M10.805 39.595v4.815M5.99 44.41h4.815M10.805 39.595h4.79M10.805 39.595v4.815M15.595 39.595h4.815M15.595 44.41h4.815M20.41 39.595h4.79M20.41 44.41h4.79M25.2 39.595h4.79M25.2 44.41h4.79M34.805 39.595h4.79M39.595 39.595h4.815M49.2 39.595v4.815M44.41 44.41h4.79M1.2 44.41h4.79M1.2 49.2h4.79M1.2 44.41v4.79M5.99 44.41h4.815M5.99 49.2h4.815M15.595 44.41v4.79M10.805 49.2h4.79M15.595 44.41h4.815M15.595 49.2h4.815M15.595 44.41v4.79M20.41 44.41h4.79M20.41 49.2h4.79M25.2 44.41h4.79M25.2 49.2h4.79M34.805 44.41v4.79M29.99 49.2h4.815M39.595 44.41v4.79M34.805 49.2h4.79M34.805 44.41v4.79M39.595 49.2h4.815M39.595 44.41v4.79M44.41 44.41h4.79M49.2 44.41v4.79M44.41 49.2h4.79"/><path d="M46.088 45.359v2.869h.243v-1.435l1.434-.706-1.677-.728z" fill="#ccc"/><path d="M3.607 5.043l-.973-2.894.973.729.948-.729-.948 2.894z" fill="red"/><path d="M5.99 2.4H9.6v4.8H12V2.4h2.4v7.2H7.2V4.8H4.8V12h16.8V9.6h-4.8V2.4h12V12H36V9.6h-4.8V2.4h7.2v2.4h-4.8v2.4h4.8v7.2h-4.8v2.4h7.2V12h4.8V9.6h-4.8V2.4H48v2.4h-4.8v2.4H48v36h-4.8v2.4h1.2" fill="none" stroke="red" stroke-width=".3" stroke-dasharray=".6,.6,0,0"/></svg>