<svg width="371" height="156" viewBox="0 0 371 156" fill="none" xmlns="http://www.w3.org/2000/svg">
<line x1="184.5" y1="23" x2="184.5" y2="144" stroke="black"/>
<line x1="102" y1="62.5" x2="334" y2="62.5" stroke="black"/>
<line x1="102" y1="102.5" x2="334" y2="102.5" stroke="black"/>
<circle cx="166" cy="43" r="6" fill="#FF0000"/>
<circle cx="166" cy="83" r="6" fill="#0500FF"/>
<circle cx="166" cy="123" r="6" fill="#007505"/>
<path d="M3.75 48.1193C3.10795 48.1193 2.56108 47.9446 2.10938 47.5952C1.65767 47.2429 1.3125 46.733 1.07386 46.0653C0.835227 45.3949 0.715909 44.5852 0.715909 43.6364C0.715909 42.6932 0.835227 41.8878 1.07386 41.2202C1.31534 40.5497 1.66193 40.0384 2.11364 39.6861C2.56818 39.331 3.11364 39.1534 3.75 39.1534C4.38636 39.1534 4.9304 39.331 5.3821 39.6861C5.83665 40.0384 6.18324 40.5497 6.42188 41.2202C6.66335 41.8878 6.78409 42.6932 6.78409 43.6364C6.78409 44.5852 6.66477 45.3949 6.42614 46.0653C6.1875 46.733 5.84233 47.2429 5.39062 47.5952C4.93892 47.9446 4.39205 48.1193 3.75 48.1193ZM3.75 47.1818C4.38636 47.1818 4.88068 46.875 5.23295 46.2614C5.58523 45.6477 5.76136 44.7727 5.76136 43.6364C5.76136 42.8807 5.6804 42.2372 5.51847 41.706C5.35938 41.1747 5.12926 40.7699 4.82812 40.4915C4.52983 40.2131 4.17045 40.0739 3.75 40.0739C3.11932 40.0739 2.62642 40.3849 2.27131 41.0071C1.91619 41.6264 1.73864 42.5028 1.73864 43.6364C1.73864 44.392 1.81818 45.0341 1.97727 45.5625C2.13636 46.0909 2.36506 46.4929 2.66335 46.7685C2.96449 47.044 3.3267 47.1818 3.75 47.1818ZM8.22 41.28H18.792V42.036H8.22V41.28ZM13.008 38.976H13.908V44.112H13.008V38.976ZM17.088 38.064L17.688 38.736C15.48 39.204 11.988 39.48 9.096 39.576C9.072 39.384 8.976 39.06 8.892 38.88C11.76 38.76 15.204 38.484 17.088 38.064ZM12.6 41.508L13.332 41.856C12.204 43.2 10.2 44.46 8.484 45.084C8.364 44.88 8.112 44.556 7.908 44.376C9.6 43.836 11.58 42.696 12.6 41.508ZM14.316 41.544C15.348 42.684 17.364 43.752 19.116 44.232C18.9 44.412 18.648 44.76 18.504 44.988C16.764 44.412 14.748 43.176 13.62 41.856L14.316 41.544ZM16.2 39.276L17.16 39.552C16.776 40.2 16.308 40.932 15.948 41.412L15.192 41.148C15.54 40.632 15.972 39.828 16.2 39.276ZM9.972 39.78L10.74 39.48C11.136 39.972 11.544 40.632 11.7 41.088L10.884 41.412C10.728 40.968 10.344 40.272 9.972 39.78ZM9.756 44.34H17.412V48.936H16.5V45.048H10.632V48.984H9.756V44.34ZM10.152 46.092H17.004V46.74H10.152V46.092ZM10.152 47.844H17.004V48.564H10.152V47.844ZM13.032 44.724H13.896V48.312H13.032V44.724ZM22.008 41.508H28.956V42.36H22.008V41.508ZM22.008 44.352H28.956V45.204H22.008V44.352ZM22.008 47.208H28.956V48.084H22.008V47.208ZM21.384 38.664H29.532V48.9H28.596V39.552H22.284V48.9H21.384V38.664ZM38.256 39.816C38.1 41.064 37.86 42.468 37.488 43.752C36.756 46.212 35.796 47.484 34.692 47.484C33.612 47.484 32.544 46.26 32.544 44.268C32.544 41.664 34.86 39.396 37.8 39.396C40.608 39.396 42.396 41.376 42.396 43.812C42.396 46.32 40.74 48 37.884 48.372L37.332 47.484C37.716 47.448 38.076 47.4 38.364 47.34C39.9 46.992 41.412 45.84 41.412 43.764C41.412 41.844 40.08 40.26 37.776 40.26C35.136 40.26 33.492 42.432 33.492 44.196C33.492 45.708 34.176 46.38 34.716 46.38C35.28 46.38 35.928 45.564 36.54 43.536C36.888 42.396 37.14 41.04 37.26 39.792L38.256 39.816ZM52.68 38.4C52.98 38.832 53.412 39.564 53.652 40.044L53.004 40.344C52.764 39.852 52.356 39.132 52.032 38.676L52.68 38.4ZM53.988 37.92C54.312 38.364 54.768 39.108 54.996 39.552L54.348 39.84C54.084 39.324 53.7 38.64 53.364 38.196L53.988 37.92ZM53.472 40.788C53.376 40.968 53.256 41.244 53.196 41.436C52.872 42.636 52.128 44.268 51.072 45.564C49.98 46.896 48.54 48 46.284 48.828L45.42 48.048C47.628 47.4 49.116 46.308 50.208 45.036C51.144 43.932 51.876 42.384 52.128 41.292H47.676L48.06 40.428C48.552 40.428 51.516 40.428 51.888 40.428C52.212 40.428 52.476 40.392 52.68 40.308L53.472 40.788ZM49.452 38.976C49.26 39.288 49.044 39.696 48.924 39.924C48.216 41.244 46.956 42.96 45.036 44.244L44.196 43.62C46.272 42.384 47.448 40.644 47.976 39.564C48.096 39.36 48.276 38.916 48.348 38.616L49.452 38.976ZM61.776 47.748C61.824 47.568 61.86 47.316 61.86 47.076C61.86 46.524 61.86 40.644 61.86 39.888C61.86 39.432 61.8 39.096 61.8 39H62.904C62.892 39.096 62.844 39.444 62.844 39.9C62.844 40.644 62.844 46.452 62.844 46.812C63.96 46.308 65.436 45.216 66.348 43.86L66.924 44.688C65.88 46.092 64.224 47.316 62.832 48.012C62.628 48.108 62.508 48.216 62.412 48.276L61.776 47.748ZM56.28 47.7C57.3 46.98 58.008 45.912 58.368 44.748C58.728 43.644 58.728 41.256 58.728 39.912C58.728 39.564 58.704 39.3 58.644 39.048H59.748C59.736 39.18 59.688 39.552 59.688 39.9C59.688 41.232 59.652 43.812 59.328 45.012C58.968 46.296 58.2 47.46 57.192 48.3L56.28 47.7ZM68.712 42.804C69.084 42.84 69.708 42.876 70.392 42.876C71.268 42.876 76.08 42.876 76.968 42.876C77.568 42.876 77.988 42.828 78.264 42.804V43.98C78.012 43.968 77.508 43.932 76.98 43.932C76.068 43.932 71.28 43.932 70.392 43.932C69.732 43.932 69.096 43.956 68.712 43.98V42.804ZM88.4452 39.384C88.4452 39.828 88.7932 40.176 89.2372 40.176C89.6692 40.176 90.0292 39.828 90.0292 39.384C90.0292 38.952 89.6692 38.592 89.2372 38.592C88.7932 38.592 88.4452 38.952 88.4452 39.384ZM87.8932 39.384C87.8932 38.64 88.4932 38.04 89.2372 38.04C89.9812 38.04 90.5812 38.64 90.5812 39.384C90.5812 40.128 89.9812 40.728 89.2372 40.728C88.4932 40.728 87.8932 40.128 87.8932 39.384ZM88.9372 40.188C88.8532 40.356 88.8052 40.56 88.7572 40.788C88.4932 42.048 87.9172 43.992 86.9572 45.216C85.8652 46.632 84.4372 47.736 82.2412 48.432L81.4252 47.532C83.7532 46.944 85.0972 45.924 86.1052 44.64C86.9572 43.56 87.5092 41.88 87.6772 40.728C86.9812 40.728 82.2292 40.728 81.5332 40.728C81.0532 40.728 80.6452 40.752 80.3452 40.776V39.708C80.6692 39.744 81.1492 39.792 81.5452 39.792C82.2292 39.792 87.0172 39.792 87.5572 39.792C87.7492 39.792 87.9772 39.78 88.2052 39.72L88.9372 40.188ZM97.2369 48L96.5806 47.3523L99.2823 44.6506H92.2852V43.7131H99.2823L96.5806 41.0199L97.2369 40.3636L101.055 44.1818L97.2369 48Z" fill="black"/>
<path d="M151.75 11.1193C151.108 11.1193 150.561 10.9446 150.109 10.5952C149.658 10.2429 149.313 9.73295 149.074 9.06534C148.835 8.39489 148.716 7.58523 148.716 6.63636C148.716 5.69318 148.835 4.88778 149.074 4.22017C149.315 3.54972 149.662 3.03835 150.114 2.68608C150.568 2.33097 151.114 2.15341 151.75 2.15341C152.386 2.15341 152.93 2.33097 153.382 2.68608C153.837 3.03835 154.183 3.54972 154.422 4.22017C154.663 4.88778 154.784 5.69318 154.784 6.63636C154.784 7.58523 154.665 8.39489 154.426 9.06534C154.188 9.73295 153.842 10.2429 153.391 10.5952C152.939 10.9446 152.392 11.1193 151.75 11.1193ZM151.75 10.1818C152.386 10.1818 152.881 9.875 153.233 9.26136C153.585 8.64773 153.761 7.77273 153.761 6.63636C153.761 5.88068 153.68 5.23722 153.518 4.70597C153.359 4.17472 153.129 3.76989 152.828 3.49148C152.53 3.21307 152.17 3.07386 151.75 3.07386C151.119 3.07386 150.626 3.38494 150.271 4.0071C149.916 4.62642 149.739 5.50284 149.739 6.63636C149.739 7.39205 149.818 8.03409 149.977 8.5625C150.136 9.09091 150.365 9.4929 150.663 9.76847C150.964 10.044 151.327 10.1818 151.75 10.1818ZM156.22 4.28H166.792V5.036H156.22V4.28ZM161.008 1.976H161.908V7.112H161.008V1.976ZM165.088 1.064L165.688 1.736C163.48 2.204 159.988 2.48 157.096 2.576C157.072 2.384 156.976 2.06 156.892 1.88C159.76 1.76 163.204 1.484 165.088 1.064ZM160.6 4.508L161.332 4.856C160.204 6.2 158.2 7.46 156.484 8.084C156.364 7.88 156.112 7.556 155.908 7.376C157.6 6.836 159.58 5.696 160.6 4.508ZM162.316 4.544C163.348 5.684 165.364 6.752 167.116 7.232C166.9 7.412 166.648 7.76 166.504 7.988C164.764 7.412 162.748 6.176 161.62 4.856L162.316 4.544ZM164.2 2.276L165.16 2.552C164.776 3.2 164.308 3.932 163.948 4.412L163.192 4.148C163.54 3.632 163.972 2.828 164.2 2.276ZM157.972 2.78L158.74 2.48C159.136 2.972 159.544 3.632 159.7 4.088L158.884 4.412C158.728 3.968 158.344 3.272 157.972 2.78ZM157.756 7.34H165.412V11.936H164.5V8.048H158.632V11.984H157.756V7.34ZM158.152 9.092H165.004V9.74H158.152V9.092ZM158.152 10.844H165.004V11.564H158.152V10.844ZM161.032 7.724H161.896V11.312H161.032V7.724ZM170.008 4.508H176.956V5.36H170.008V4.508ZM170.008 7.352H176.956V8.204H170.008V7.352ZM170.008 10.208H176.956V11.084H170.008V10.208ZM169.384 1.664H177.532V11.9H176.596V2.552H170.284V11.9H169.384V1.664ZM186.256 2.816C186.1 4.064 185.86 5.468 185.488 6.752C184.756 9.212 183.796 10.484 182.692 10.484C181.612 10.484 180.544 9.26 180.544 7.268C180.544 4.664 182.86 2.396 185.8 2.396C188.608 2.396 190.396 4.376 190.396 6.812C190.396 9.32 188.74 11 185.884 11.372L185.332 10.484C185.716 10.448 186.076 10.4 186.364 10.34C187.9 9.992 189.412 8.84 189.412 6.764C189.412 4.844 188.08 3.26 185.776 3.26C183.136 3.26 181.492 5.432 181.492 7.196C181.492 8.708 182.176 9.38 182.716 9.38C183.28 9.38 183.928 8.564 184.54 6.536C184.888 5.396 185.14 4.04 185.26 2.792L186.256 2.816ZM196.948 0.92H197.86V5.012H196.948V0.92ZM194.332 5.432V7.58H200.608V5.432H194.332ZM193.48 4.58H201.52V8.42H193.48V4.58ZM197.368 2.204H202.42V3.056H197.368V2.204ZM195.568 9.464L196.432 9.392C196.6 10.172 196.732 11.156 196.744 11.744L195.82 11.864C195.82 11.252 195.724 10.244 195.568 9.464ZM198.052 9.476L198.868 9.308C199.24 10.028 199.636 11 199.78 11.612L198.892 11.828C198.772 11.228 198.412 10.232 198.052 9.476ZM200.5 9.38L201.304 9.08C201.916 9.824 202.612 10.844 202.9 11.516L202.048 11.864C201.772 11.204 201.112 10.148 200.5 9.38ZM193.624 9.152L194.476 9.368C194.08 10.304 193.468 11.324 192.82 11.96L191.992 11.552C192.628 11.012 193.252 10.04 193.624 9.152ZM210.256 2.816C210.1 4.064 209.86 5.468 209.488 6.752C208.756 9.212 207.796 10.484 206.692 10.484C205.612 10.484 204.544 9.26 204.544 7.268C204.544 4.664 206.86 2.396 209.8 2.396C212.608 2.396 214.396 4.376 214.396 6.812C214.396 9.32 212.74 11 209.884 11.372L209.332 10.484C209.716 10.448 210.076 10.4 210.364 10.34C211.9 9.992 213.412 8.84 213.412 6.764C213.412 4.844 212.08 3.26 209.776 3.26C207.136 3.26 205.492 5.432 205.492 7.196C205.492 8.708 206.176 9.38 206.716 9.38C207.28 9.38 207.928 8.564 208.54 6.536C208.888 5.396 209.14 4.04 209.26 2.792L210.256 2.816ZM220.624 7.796H225.4V8.492H220.624V7.796ZM219.508 1.868H226.636V2.552H219.508V1.868ZM219.796 3.32H226.336V3.98H219.796V3.32ZM219.136 4.82H226.984V5.504H219.136V4.82ZM220.624 9.404H225.436V10.076H220.624V9.404ZM220.012 6.212H225.4V6.908H220.852V11.948H220.012V6.212ZM225.184 6.212H226.048V10.952C226.048 11.408 225.952 11.648 225.616 11.78C225.28 11.912 224.74 11.924 223.888 11.912C223.852 11.696 223.732 11.36 223.624 11.132C224.224 11.156 224.8 11.156 224.968 11.144C225.136 11.144 225.184 11.096 225.184 10.94V6.212ZM222.58 0.92H223.468V5.036H222.58V0.92ZM217.312 0.92H218.14V11.948H217.312V0.92ZM216.364 3.236L217.036 3.332C217 4.268 216.796 5.66 216.52 6.56L215.824 6.332C216.1 5.504 216.292 4.184 216.364 3.236ZM218.248 2.924L218.848 2.684C219.112 3.236 219.4 3.944 219.508 4.388L218.884 4.688C218.764 4.232 218.488 3.488 218.248 2.924ZM234.172 5.564H238.096V6.308H234.172V5.564ZM233.716 1.484H238.012V2.288H234.544V11.972H233.716V1.484ZM237.58 1.484H238.42V3.8C238.42 4.244 238.324 4.484 237.952 4.616C237.58 4.748 236.98 4.76 236.056 4.76C236.02 4.52 235.9 4.196 235.78 3.968C236.524 3.992 237.148 3.992 237.34 3.98C237.532 3.968 237.58 3.92 237.58 3.788V1.484ZM235.348 6.056C235.996 8.3 237.352 10.352 239.152 11.228C238.948 11.408 238.672 11.732 238.528 11.96C236.68 10.916 235.348 8.732 234.64 6.236L235.348 6.056ZM237.82 5.564H237.988L238.144 5.516L238.696 5.72C238.228 8.324 237.04 10.688 235.12 11.984C234.988 11.78 234.724 11.528 234.52 11.372C236.32 10.196 237.448 7.952 237.82 5.756V5.564ZM228.424 2.156H232.876V2.936H228.424V2.156ZM228.28 8.72H233.032V9.5H228.28V8.72ZM227.992 4.136H233.332V4.916H227.992V4.136ZM228.16 6.632H233.188V7.412H228.16V6.632ZM230.272 0.943999H231.112V4.412H230.272V0.943999ZM230.272 6.956H231.112V11.936H230.272V6.956ZM231.892 4.868L232.66 5.072C232.42 5.648 232.192 6.272 231.964 6.692L231.292 6.488C231.496 6.044 231.76 5.336 231.892 4.868ZM228.832 5.06L229.516 4.892C229.78 5.396 230.02 6.08 230.08 6.5L229.36 6.704C229.3 6.272 229.072 5.588 228.832 5.06Z" fill="black"/>
<path d="M256.972 2.27273V11H255.915V3.38068H255.864L253.733 4.79545V3.72159L255.915 2.27273H256.972ZM259.298 4.28H269.87V5.036H259.298V4.28ZM264.086 1.976H264.986V7.112H264.086V1.976ZM268.166 1.064L268.766 1.736C266.558 2.204 263.066 2.48 260.174 2.576C260.15 2.384 260.054 2.06 259.97 1.88C262.838 1.76 266.282 1.484 268.166 1.064ZM263.678 4.508L264.41 4.856C263.282 6.2 261.278 7.46 259.562 8.084C259.442 7.88 259.19 7.556 258.986 7.376C260.678 6.836 262.658 5.696 263.678 4.508ZM265.394 4.544C266.426 5.684 268.442 6.752 270.194 7.232C269.978 7.412 269.726 7.76 269.582 7.988C267.842 7.412 265.826 6.176 264.698 4.856L265.394 4.544ZM267.278 2.276L268.238 2.552C267.854 3.2 267.386 3.932 267.026 4.412L266.27 4.148C266.618 3.632 267.05 2.828 267.278 2.276ZM261.05 2.78L261.818 2.48C262.214 2.972 262.622 3.632 262.778 4.088L261.962 4.412C261.806 3.968 261.422 3.272 261.05 2.78ZM260.834 7.34H268.49V11.936H267.578V8.048H261.71V11.984H260.834V7.34ZM261.23 9.092H268.082V9.74H261.23V9.092ZM261.23 10.844H268.082V11.564H261.23V10.844ZM264.11 7.724H264.974V11.312H264.11V7.724ZM273.086 4.508H280.034V5.36H273.086V4.508ZM273.086 7.352H280.034V8.204H273.086V7.352ZM273.086 10.208H280.034V11.084H273.086V10.208ZM272.462 1.664H280.61V11.9H279.674V2.552H273.362V11.9H272.462V1.664ZM289.334 2.816C289.178 4.064 288.938 5.468 288.566 6.752C287.834 9.212 286.874 10.484 285.77 10.484C284.69 10.484 283.622 9.26 283.622 7.268C283.622 4.664 285.938 2.396 288.878 2.396C291.686 2.396 293.474 4.376 293.474 6.812C293.474 9.32 291.818 11 288.962 11.372L288.41 10.484C288.794 10.448 289.154 10.4 289.442 10.34C290.978 9.992 292.49 8.84 292.49 6.764C292.49 4.844 291.158 3.26 288.854 3.26C286.214 3.26 284.57 5.432 284.57 7.196C284.57 8.708 285.254 9.38 285.794 9.38C286.358 9.38 287.006 8.564 287.618 6.536C287.966 5.396 288.218 4.04 288.338 2.792L289.334 2.816ZM300.026 0.92H300.938V5.012H300.026V0.92ZM297.41 5.432V7.58H303.686V5.432H297.41ZM296.558 4.58H304.598V8.42H296.558V4.58ZM300.446 2.204H305.498V3.056H300.446V2.204ZM298.646 9.464L299.51 9.392C299.678 10.172 299.81 11.156 299.822 11.744L298.898 11.864C298.898 11.252 298.802 10.244 298.646 9.464ZM301.13 9.476L301.946 9.308C302.318 10.028 302.714 11 302.858 11.612L301.97 11.828C301.85 11.228 301.49 10.232 301.13 9.476ZM303.578 9.38L304.382 9.08C304.994 9.824 305.69 10.844 305.978 11.516L305.126 11.864C304.85 11.204 304.19 10.148 303.578 9.38ZM296.702 9.152L297.554 9.368C297.158 10.304 296.546 11.324 295.898 11.96L295.07 11.552C295.706 11.012 296.33 10.04 296.702 9.152ZM313.334 2.816C313.178 4.064 312.938 5.468 312.566 6.752C311.834 9.212 310.874 10.484 309.77 10.484C308.69 10.484 307.622 9.26 307.622 7.268C307.622 4.664 309.938 2.396 312.878 2.396C315.686 2.396 317.474 4.376 317.474 6.812C317.474 9.32 315.818 11 312.962 11.372L312.41 10.484C312.794 10.448 313.154 10.4 313.442 10.34C314.978 9.992 316.49 8.84 316.49 6.764C316.49 4.844 315.158 3.26 312.854 3.26C310.214 3.26 308.57 5.432 308.57 7.196C308.57 8.708 309.254 9.38 309.794 9.38C310.358 9.38 311.006 8.564 311.618 6.536C311.966 5.396 312.218 4.04 312.338 2.792L313.334 2.816ZM323.702 7.796H328.478V8.492H323.702V7.796ZM322.586 1.868H329.714V2.552H322.586V1.868ZM322.874 3.32H329.414V3.98H322.874V3.32ZM322.214 4.82H330.062V5.504H322.214V4.82ZM323.702 9.404H328.514V10.076H323.702V9.404ZM323.09 6.212H328.478V6.908H323.93V11.948H323.09V6.212ZM328.262 6.212H329.126V10.952C329.126 11.408 329.03 11.648 328.694 11.78C328.358 11.912 327.818 11.924 326.966 11.912C326.93 11.696 326.81 11.36 326.702 11.132C327.302 11.156 327.878 11.156 328.046 11.144C328.214 11.144 328.262 11.096 328.262 10.94V6.212ZM325.658 0.92H326.546V5.036H325.658V0.92ZM320.39 0.92H321.218V11.948H320.39V0.92ZM319.442 3.236L320.114 3.332C320.078 4.268 319.874 5.66 319.598 6.56L318.902 6.332C319.178 5.504 319.37 4.184 319.442 3.236ZM321.326 2.924L321.926 2.684C322.19 3.236 322.478 3.944 322.586 4.388L321.962 4.688C321.842 4.232 321.566 3.488 321.326 2.924ZM337.25 5.564H341.174V6.308H337.25V5.564ZM336.794 1.484H341.09V2.288H337.622V11.972H336.794V1.484ZM340.658 1.484H341.498V3.8C341.498 4.244 341.402 4.484 341.03 4.616C340.658 4.748 340.058 4.76 339.134 4.76C339.098 4.52 338.978 4.196 338.858 3.968C339.602 3.992 340.226 3.992 340.418 3.98C340.61 3.968 340.658 3.92 340.658 3.788V1.484ZM338.426 6.056C339.074 8.3 340.43 10.352 342.23 11.228C342.026 11.408 341.75 11.732 341.606 11.96C339.758 10.916 338.426 8.732 337.718 6.236L338.426 6.056ZM340.898 5.564H341.066L341.222 5.516L341.774 5.72C341.306 8.324 340.118 10.688 338.198 11.984C338.066 11.78 337.802 11.528 337.598 11.372C339.398 10.196 340.526 7.952 340.898 5.756V5.564ZM331.502 2.156H335.954V2.936H331.502V2.156ZM331.358 8.72H336.11V9.5H331.358V8.72ZM331.07 4.136H336.41V4.916H331.07V4.136ZM331.238 6.632H336.266V7.412H331.238V6.632ZM333.35 0.943999H334.19V4.412H333.35V0.943999ZM333.35 6.956H334.19V11.936H333.35V6.956ZM334.97 4.868L335.738 5.072C335.498 5.648 335.27 6.272 335.042 6.692L334.37 6.488C334.574 6.044 334.838 5.336 334.97 4.868ZM331.91 5.06L332.594 4.892C332.858 5.396 333.098 6.08 333.158 6.5L332.438 6.704C332.378 6.272 332.15 5.588 331.91 5.06Z" fill="black"/>
<path d="M3.97159 79.2727V88H2.91477V80.3807H2.86364L0.732955 81.7955V80.7216L2.91477 79.2727H3.97159ZM6.29813 81.28H16.8701V82.036H6.29813V81.28ZM11.0861 78.976H11.9861V84.112H11.0861V78.976ZM15.1661 78.064L15.7661 78.736C13.5581 79.204 10.0661 79.48 7.17413 79.576C7.15013 79.384 7.05413 79.06 6.97013 78.88C9.83813 78.76 13.2821 78.484 15.1661 78.064ZM10.6781 81.508L11.4101 81.856C10.2821 83.2 8.27813 84.46 6.56213 85.084C6.44213 84.88 6.19013 84.556 5.98613 84.376C7.67813 83.836 9.65813 82.696 10.6781 81.508ZM12.3941 81.544C13.4261 82.684 15.4421 83.752 17.1941 84.232C16.9781 84.412 16.7261 84.76 16.5821 84.988C14.8421 84.412 12.8261 83.176 11.6981 81.856L12.3941 81.544ZM14.2781 79.276L15.2381 79.552C14.8541 80.2 14.3861 80.932 14.0261 81.412L13.2701 81.148C13.6181 80.632 14.0501 79.828 14.2781 79.276ZM8.05013 79.78L8.81813 79.48C9.21413 79.972 9.62213 80.632 9.77813 81.088L8.96213 81.412C8.80613 80.968 8.42213 80.272 8.05013 79.78ZM7.83413 84.34H15.4901V88.936H14.5781V85.048H8.71013V88.984H7.83413V84.34ZM8.23013 86.092H15.0821V86.74H8.23013V86.092ZM8.23013 87.844H15.0821V88.564H8.23013V87.844ZM11.1101 84.724H11.9741V88.312H11.1101V84.724ZM20.0861 81.508H27.0341V82.36H20.0861V81.508ZM20.0861 84.352H27.0341V85.204H20.0861V84.352ZM20.0861 87.208H27.0341V88.084H20.0861V87.208ZM19.4621 78.664H27.6101V88.9H26.6741V79.552H20.3621V88.9H19.4621V78.664ZM36.3341 79.816C36.1781 81.064 35.9381 82.468 35.5661 83.752C34.8341 86.212 33.8741 87.484 32.7701 87.484C31.6901 87.484 30.6221 86.26 30.6221 84.268C30.6221 81.664 32.9381 79.396 35.8781 79.396C38.6861 79.396 40.4741 81.376 40.4741 83.812C40.4741 86.32 38.8181 88 35.9621 88.372L35.4101 87.484C35.7941 87.448 36.1541 87.4 36.4421 87.34C37.9781 86.992 39.4901 85.84 39.4901 83.764C39.4901 81.844 38.1581 80.26 35.8541 80.26C33.2141 80.26 31.5701 82.432 31.5701 84.196C31.5701 85.708 32.2541 86.38 32.7941 86.38C33.3581 86.38 34.0061 85.564 34.6181 83.536C34.9661 82.396 35.2181 81.04 35.3381 79.792L36.3341 79.816ZM50.7581 78.4C51.0581 78.832 51.4901 79.564 51.7301 80.044L51.0821 80.344C50.8421 79.852 50.4341 79.132 50.1101 78.676L50.7581 78.4ZM52.0661 77.92C52.3901 78.364 52.8461 79.108 53.0741 79.552L52.4261 79.84C52.1621 79.324 51.7781 78.64 51.4421 78.196L52.0661 77.92ZM51.5501 80.788C51.4541 80.968 51.3341 81.244 51.2741 81.436C50.9501 82.636 50.2061 84.268 49.1501 85.564C48.0581 86.896 46.6181 88 44.3621 88.828L43.4981 88.048C45.7061 87.4 47.1941 86.308 48.2861 85.036C49.2221 83.932 49.9541 82.384 50.2061 81.292H45.7541L46.1381 80.428C46.6301 80.428 49.5941 80.428 49.9661 80.428C50.2901 80.428 50.5541 80.392 50.7581 80.308L51.5501 80.788ZM47.5301 78.976C47.3381 79.288 47.1221 79.696 47.0021 79.924C46.2941 81.244 45.0341 82.96 43.1141 84.244L42.2741 83.62C44.3501 82.384 45.5261 80.644 46.0541 79.564C46.1741 79.36 46.3541 78.916 46.4261 78.616L47.5301 78.976ZM59.8541 87.748C59.9021 87.568 59.9381 87.316 59.9381 87.076C59.9381 86.524 59.9381 80.644 59.9381 79.888C59.9381 79.432 59.8781 79.096 59.8781 79H60.9821C60.9701 79.096 60.9221 79.444 60.9221 79.9C60.9221 80.644 60.9221 86.452 60.9221 86.812C62.0381 86.308 63.5141 85.216 64.4261 83.86L65.0021 84.688C63.9581 86.092 62.3021 87.316 60.9101 88.012C60.7061 88.108 60.5861 88.216 60.4901 88.276L59.8541 87.748ZM54.3581 87.7C55.3781 86.98 56.0861 85.912 56.4461 84.748C56.8061 83.644 56.8061 81.256 56.8061 79.912C56.8061 79.564 56.7821 79.3 56.7221 79.048H57.8261C57.8141 79.18 57.7661 79.552 57.7661 79.9C57.7661 81.232 57.7301 83.812 57.4061 85.012C57.0461 86.296 56.2781 87.46 55.2701 88.3L54.3581 87.7ZM66.7901 82.804C67.1621 82.84 67.7861 82.876 68.4701 82.876C69.3461 82.876 74.1581 82.876 75.0461 82.876C75.6461 82.876 76.0661 82.828 76.3421 82.804V83.98C76.0901 83.968 75.5861 83.932 75.0581 83.932C74.1461 83.932 69.3581 83.932 68.4701 83.932C67.8101 83.932 67.1741 83.956 66.7901 83.98V82.804ZM86.5233 79.384C86.5233 79.828 86.8713 80.176 87.3153 80.176C87.7473 80.176 88.1073 79.828 88.1073 79.384C88.1073 78.952 87.7473 78.592 87.3153 78.592C86.8713 78.592 86.5233 78.952 86.5233 79.384ZM85.9713 79.384C85.9713 78.64 86.5713 78.04 87.3153 78.04C88.0593 78.04 88.6593 78.64 88.6593 79.384C88.6593 80.128 88.0593 80.728 87.3153 80.728C86.5713 80.728 85.9713 80.128 85.9713 79.384ZM87.0153 80.188C86.9313 80.356 86.8833 80.56 86.8353 80.788C86.5713 82.048 85.9953 83.992 85.0353 85.216C83.9433 86.632 82.5153 87.736 80.3193 88.432L79.5033 87.532C81.8313 86.944 83.1753 85.924 84.1833 84.64C85.0353 83.56 85.5873 81.88 85.7553 80.728C85.0593 80.728 80.3073 80.728 79.6113 80.728C79.1313 80.728 78.7233 80.752 78.4233 80.776V79.708C78.7473 79.744 79.2273 79.792 79.6233 79.792C80.3073 79.792 85.0953 79.792 85.6353 79.792C85.8273 79.792 86.0553 79.78 86.2833 79.72L87.0153 80.188ZM95.315 88L94.6587 87.3523L97.3604 84.6506H90.3633V83.7131H97.3604L94.6587 81.0199L95.315 80.3636L99.1332 84.1818L95.315 88Z" fill="black"/>
<path d="M200.264 35.56H201.48V41.016H200.264V35.56ZM196.776 41.576V44.44H205.144V41.576H196.776ZM195.64 40.44H206.36V45.56H195.64V40.44ZM200.824 37.272H207.56V38.408H200.824V37.272ZM198.424 46.952L199.576 46.856C199.8 47.896 199.976 49.208 199.992 49.992L198.76 50.152C198.76 49.336 198.632 47.992 198.424 46.952ZM201.736 46.968L202.824 46.744C203.32 47.704 203.848 49 204.04 49.816L202.856 50.104C202.696 49.304 202.216 47.976 201.736 46.968ZM205 46.84L206.072 46.44C206.888 47.432 207.816 48.792 208.2 49.688L207.064 50.152C206.696 49.272 205.816 47.864 205 46.84ZM195.832 46.536L196.968 46.824C196.44 48.072 195.624 49.432 194.76 50.28L193.656 49.736C194.504 49.016 195.336 47.72 195.832 46.536ZM210.705 44.0909C210.705 42.6591 210.89 41.3428 211.261 40.142C211.636 38.9375 212.17 37.8295 212.864 36.8182H214.045C213.773 37.1932 213.517 37.6553 213.278 38.2045C213.044 38.75 212.837 39.3504 212.659 40.0057C212.481 40.6572 212.341 41.3314 212.239 42.0284C212.14 42.7254 212.091 43.4129 212.091 44.0909C212.091 44.9924 212.178 45.9072 212.352 46.8352C212.527 47.7633 212.761 48.625 213.057 49.4205C213.352 50.2159 213.682 50.8636 214.045 51.3636H212.864C212.17 50.3523 211.636 49.2462 211.261 48.0455C210.89 46.8409 210.705 45.5227 210.705 44.0909ZM218.592 49.2045C218.039 49.2045 217.537 49.1004 217.087 48.892C216.636 48.6799 216.278 48.375 216.013 47.9773C215.748 47.5758 215.615 47.0909 215.615 46.5227C215.615 46.0227 215.714 45.6174 215.911 45.3068C216.107 44.9924 216.371 44.7462 216.7 44.5682C217.03 44.3902 217.393 44.2576 217.791 44.1705C218.193 44.0795 218.596 44.0076 219.001 43.9545C219.532 43.8864 219.962 43.8352 220.291 43.8011C220.625 43.7633 220.867 43.7008 221.018 43.6136C221.174 43.5265 221.251 43.375 221.251 43.1591V43.1136C221.251 42.553 221.098 42.1174 220.791 41.8068C220.488 41.4962 220.028 41.3409 219.411 41.3409C218.77 41.3409 218.268 41.4811 217.905 41.7614C217.541 42.0417 217.286 42.3409 217.138 42.6591L215.865 42.2045C216.092 41.6742 216.395 41.2614 216.774 40.9659C217.157 40.6667 217.573 40.4583 218.024 40.3409C218.479 40.2197 218.926 40.1591 219.365 40.1591C219.645 40.1591 219.967 40.1932 220.331 40.2614C220.698 40.3258 221.053 40.4602 221.393 40.6648C221.738 40.8693 222.024 41.178 222.251 41.5909C222.479 42.0038 222.592 42.5568 222.592 43.25V49H221.251V47.8182H221.183C221.092 48.0076 220.941 48.2102 220.729 48.4261C220.517 48.642 220.234 48.8258 219.882 48.9773C219.53 49.1288 219.1 49.2045 218.592 49.2045ZM218.797 48C219.327 48 219.774 47.8958 220.138 47.6875C220.505 47.4792 220.782 47.2102 220.967 46.8807C221.157 46.5511 221.251 46.2045 221.251 45.8409V44.6136C221.195 44.6818 221.07 44.7443 220.876 44.8011C220.687 44.8542 220.467 44.9015 220.217 44.9432C219.971 44.9811 219.731 45.0152 219.496 45.0455C219.265 45.072 219.077 45.0947 218.933 45.1136C218.585 45.1591 218.259 45.233 217.956 45.3352C217.657 45.4337 217.414 45.5833 217.229 45.7841C217.047 45.9811 216.956 46.25 216.956 46.5909C216.956 47.0568 217.128 47.4091 217.473 47.6477C217.821 47.8826 218.263 48 218.797 48ZM227.04 47.4091L226.949 48.0227C226.884 48.4545 226.786 48.9167 226.653 49.4091C226.525 49.9015 226.39 50.3655 226.25 50.8011C226.11 51.2367 225.994 51.5833 225.903 51.8409H224.881C224.93 51.5985 224.994 51.2784 225.074 50.8807C225.153 50.483 225.233 50.0379 225.312 49.5455C225.396 49.0568 225.464 48.5568 225.517 48.0455L225.585 47.4091H227.04ZM229.706 49V37.3636H231.047V41.6591H231.161C231.259 41.5076 231.395 41.3144 231.57 41.0795C231.748 40.8409 232.001 40.6288 232.331 40.4432C232.664 40.2538 233.115 40.1591 233.683 40.1591C234.418 40.1591 235.066 40.3428 235.626 40.7102C236.187 41.0777 236.625 41.5985 236.939 42.2727C237.253 42.947 237.411 43.7424 237.411 44.6591C237.411 45.5833 237.253 46.3845 236.939 47.0625C236.625 47.7367 236.189 48.2595 235.632 48.6307C235.075 48.9981 234.433 49.1818 233.706 49.1818C233.145 49.1818 232.696 49.089 232.359 48.9034C232.022 48.714 231.763 48.5 231.581 48.2614C231.399 48.0189 231.259 47.8182 231.161 47.6591H231.001V49H229.706ZM231.024 44.6364C231.024 45.2955 231.121 45.8769 231.314 46.3807C231.507 46.8807 231.789 47.2727 232.161 47.5568C232.532 47.8371 232.986 47.9773 233.524 47.9773C234.085 47.9773 234.553 47.8295 234.928 47.5341C235.306 47.2348 235.59 46.8333 235.78 46.3295C235.973 45.822 236.07 45.2576 236.07 44.6364C236.07 44.0227 235.975 43.4697 235.786 42.9773C235.6 42.4811 235.318 42.089 234.939 41.8011C234.564 41.5095 234.092 41.3636 233.524 41.3636C232.979 41.3636 232.52 41.5019 232.149 41.7784C231.778 42.0511 231.498 42.4337 231.308 42.9261C231.119 43.4148 231.024 43.9848 231.024 44.6364ZM242.138 44.0909C242.138 45.5227 241.95 46.8409 241.575 48.0455C241.204 49.2462 240.672 50.3523 239.979 51.3636H238.797C239.07 50.9886 239.323 50.5265 239.558 49.9773C239.797 49.4318 240.005 48.8333 240.183 48.1818C240.361 47.5265 240.5 46.8504 240.598 46.1534C240.7 45.4527 240.751 44.7652 240.751 44.0909C240.751 43.1894 240.664 42.2746 240.49 41.3466C240.316 40.4186 240.081 39.5568 239.786 38.7614C239.49 37.9659 239.161 37.3182 238.797 36.8182H239.979C240.672 37.8295 241.204 38.9375 241.575 40.142C241.95 41.3428 242.138 42.6591 242.138 44.0909ZM247.071 47.4091L246.98 48.0227C246.916 48.4545 246.817 48.9167 246.685 49.4091C246.556 49.9015 246.421 50.3655 246.281 50.8011C246.141 51.2367 246.026 51.5833 245.935 51.8409H244.912C244.961 51.5985 245.026 51.2784 245.105 50.8807C245.185 50.483 245.264 50.0379 245.344 49.5455C245.427 49.0568 245.495 48.5568 245.548 48.0455L245.616 47.4091H247.071ZM255.592 35.56H256.808V41.016H255.592V35.56ZM252.104 41.576V44.44H260.472V41.576H252.104ZM250.968 40.44H261.688V45.56H250.968V40.44ZM256.152 37.272H262.888V38.408H256.152V37.272ZM253.752 46.952L254.904 46.856C255.128 47.896 255.304 49.208 255.32 49.992L254.088 50.152C254.088 49.336 253.96 47.992 253.752 46.952ZM257.064 46.968L258.152 46.744C258.648 47.704 259.176 49 259.368 49.816L258.184 50.104C258.024 49.304 257.544 47.976 257.064 46.968ZM260.328 46.84L261.4 46.44C262.216 47.432 263.144 48.792 263.528 49.688L262.392 50.152C262.024 49.272 261.144 47.864 260.328 46.84ZM251.16 46.536L252.296 46.824C251.768 48.072 250.952 49.432 250.088 50.28L248.984 49.736C249.832 49.016 250.664 47.72 251.16 46.536ZM266.033 44.0909C266.033 42.6591 266.218 41.3428 266.589 40.142C266.964 38.9375 267.499 37.8295 268.192 36.8182H269.374C269.101 37.1932 268.845 37.6553 268.607 38.2045C268.372 38.75 268.165 39.3504 267.987 40.0057C267.809 40.6572 267.669 41.3314 267.567 42.0284C267.468 42.7254 267.419 43.4129 267.419 44.0909C267.419 44.9924 267.506 45.9072 267.68 46.8352C267.855 47.7633 268.089 48.625 268.385 49.4205C268.68 50.2159 269.01 50.8636 269.374 51.3636H268.192C267.499 50.3523 266.964 49.2462 266.589 48.0455C266.218 46.8409 266.033 45.5227 266.033 44.0909ZM274.71 49.1818C273.892 49.1818 273.188 48.9886 272.597 48.6023C272.006 48.2159 271.551 47.6837 271.233 47.0057C270.915 46.3277 270.756 45.553 270.756 44.6818C270.756 43.7955 270.919 43.0133 271.244 42.3352C271.574 41.6534 272.032 41.1212 272.619 40.7386C273.21 40.3523 273.9 40.1591 274.688 40.1591C275.301 40.1591 275.854 40.2727 276.347 40.5C276.839 40.7273 277.242 41.0455 277.557 41.4545C277.871 41.8636 278.066 42.3409 278.142 42.8864H276.801C276.699 42.4886 276.472 42.1364 276.119 41.8295C275.771 41.5189 275.301 41.3636 274.71 41.3636C274.188 41.3636 273.729 41.5 273.335 41.7727C272.945 42.0417 272.64 42.4223 272.42 42.9148C272.205 43.4034 272.097 43.9773 272.097 44.6364C272.097 45.3106 272.203 45.8977 272.415 46.3977C272.631 46.8977 272.934 47.286 273.324 47.5625C273.718 47.839 274.18 47.9773 274.71 47.9773C275.059 47.9773 275.375 47.9167 275.659 47.7955C275.943 47.6742 276.184 47.5 276.381 47.2727C276.578 47.0455 276.718 46.7727 276.801 46.4545H278.142C278.066 46.9697 277.879 47.4337 277.58 47.8466C277.284 48.2557 276.892 48.5814 276.403 48.8239C275.919 49.0625 275.354 49.1818 274.71 49.1818ZM282.102 47.4091L282.011 48.0227C281.947 48.4545 281.848 48.9167 281.716 49.4091C281.587 49.9015 281.453 50.3655 281.312 50.8011C281.172 51.2367 281.057 51.5833 280.966 51.8409H279.943C279.992 51.5985 280.057 51.2784 280.136 50.8807C280.216 50.483 280.295 50.0379 280.375 49.5455C280.458 49.0568 280.527 48.5568 280.58 48.0455L280.648 47.4091H282.102ZM287.882 49.1818C287.155 49.1818 286.513 48.9981 285.956 48.6307C285.399 48.2595 284.964 47.7367 284.649 47.0625C284.335 46.3845 284.178 45.5833 284.178 44.6591C284.178 43.7424 284.335 42.947 284.649 42.2727C284.964 41.5985 285.401 41.0777 285.962 40.7102C286.522 40.3428 287.17 40.1591 287.905 40.1591C288.473 40.1591 288.922 40.2538 289.251 40.4432C289.585 40.6288 289.839 40.8409 290.013 41.0795C290.191 41.3144 290.329 41.5076 290.428 41.6591H290.541V37.3636H291.882V49H290.587V47.6591H290.428C290.329 47.8182 290.189 48.0189 290.007 48.2614C289.825 48.5 289.566 48.714 289.229 48.9034C288.892 49.089 288.443 49.1818 287.882 49.1818ZM288.064 47.9773C288.602 47.9773 289.056 47.8371 289.428 47.5568C289.799 47.2727 290.081 46.8807 290.274 46.3807C290.467 45.8769 290.564 45.2955 290.564 44.6364C290.564 43.9848 290.469 43.4148 290.28 42.9261C290.09 42.4337 289.81 42.0511 289.439 41.7784C289.068 41.5019 288.609 41.3636 288.064 41.3636C287.496 41.3636 287.022 41.5095 286.643 41.8011C286.268 42.089 285.986 42.4811 285.797 42.9773C285.611 43.4697 285.518 44.0227 285.518 44.6364C285.518 45.2576 285.613 45.822 285.803 46.3295C285.996 46.8333 286.28 47.2348 286.655 47.5341C287.034 47.8295 287.503 47.9773 288.064 47.9773ZM297.388 44.0909C297.388 45.5227 297.2 46.8409 296.825 48.0455C296.454 49.2462 295.922 50.3523 295.229 51.3636H294.047C294.32 50.9886 294.573 50.5265 294.808 49.9773C295.047 49.4318 295.255 48.8333 295.433 48.1818C295.611 47.5265 295.75 46.8504 295.848 46.1534C295.95 45.4527 296.001 44.7652 296.001 44.0909C296.001 43.1894 295.914 42.2746 295.74 41.3466C295.566 40.4186 295.331 39.5568 295.036 38.7614C294.74 37.9659 294.411 37.3182 294.047 36.8182H295.229C295.922 37.8295 296.454 38.9375 296.825 40.142C297.2 41.3428 297.388 42.6591 297.388 44.0909ZM302.321 47.4091L302.23 48.0227C302.166 48.4545 302.067 48.9167 301.935 49.4091C301.806 49.9015 301.671 50.3655 301.531 50.8011C301.391 51.2367 301.276 51.5833 301.185 51.8409H300.162C300.211 51.5985 300.276 51.2784 300.355 50.8807C300.435 50.483 300.514 50.0379 300.594 49.5455C300.677 49.0568 300.745 48.5568 300.798 48.0455L300.866 47.4091H302.321ZM305.783 49.0909C305.502 49.0909 305.262 48.9905 305.061 48.7898C304.86 48.589 304.76 48.3485 304.76 48.0682C304.76 47.7879 304.86 47.5473 305.061 47.3466C305.262 47.1458 305.502 47.0455 305.783 47.0455C306.063 47.0455 306.304 47.1458 306.504 47.3466C306.705 47.5473 306.805 47.7879 306.805 48.0682C306.805 48.2538 306.758 48.4242 306.663 48.5795C306.572 48.7348 306.449 48.8598 306.294 48.9545C306.143 49.0455 305.972 49.0909 305.783 49.0909ZM310.146 49.0909C309.866 49.0909 309.625 48.9905 309.425 48.7898C309.224 48.589 309.124 48.3485 309.124 48.0682C309.124 47.7879 309.224 47.5473 309.425 47.3466C309.625 47.1458 309.866 47.0455 310.146 47.0455C310.427 47.0455 310.667 47.1458 310.868 47.3466C311.069 47.5473 311.169 47.7879 311.169 48.0682C311.169 48.2538 311.122 48.4242 311.027 48.5795C310.936 48.7348 310.813 48.8598 310.658 48.9545C310.506 49.0455 310.336 49.0909 310.146 49.0909ZM314.51 49.0909C314.23 49.0909 313.989 48.9905 313.788 48.7898C313.588 48.589 313.487 48.3485 313.487 48.0682C313.487 47.7879 313.588 47.5473 313.788 47.3466C313.989 47.1458 314.23 47.0455 314.51 47.0455C314.79 47.0455 315.031 47.1458 315.232 47.3466C315.432 47.5473 315.533 47.7879 315.533 48.0682C315.533 48.2538 315.485 48.4242 315.391 48.5795C315.3 48.7348 315.177 48.8598 315.021 48.9545C314.87 49.0455 314.699 49.0909 314.51 49.0909Z" fill="black"/>
<path d="M200.264 77.56H201.48V83.016H200.264V77.56ZM196.776 83.576V86.44H205.144V83.576H196.776ZM195.64 82.44H206.36V87.56H195.64V82.44ZM200.824 79.272H207.56V80.408H200.824V79.272ZM198.424 88.952L199.576 88.856C199.8 89.896 199.976 91.208 199.992 91.992L198.76 92.152C198.76 91.336 198.632 89.992 198.424 88.952ZM201.736 88.968L202.824 88.744C203.32 89.704 203.848 91 204.04 91.816L202.856 92.104C202.696 91.304 202.216 89.976 201.736 88.968ZM205 88.84L206.072 88.44C206.888 89.432 207.816 90.792 208.2 91.688L207.064 92.152C206.696 91.272 205.816 89.864 205 88.84ZM195.832 88.536L196.968 88.824C196.44 90.072 195.624 91.432 194.76 92.28L193.656 91.736C194.504 91.016 195.336 89.72 195.832 88.536ZM210.705 86.0909C210.705 84.6591 210.89 83.3428 211.261 82.142C211.636 80.9375 212.17 79.8295 212.864 78.8182H214.045C213.773 79.1932 213.517 79.6553 213.278 80.2045C213.044 80.75 212.837 81.3504 212.659 82.0057C212.481 82.6572 212.341 83.3314 212.239 84.0284C212.14 84.7254 212.091 85.4129 212.091 86.0909C212.091 86.9924 212.178 87.9072 212.352 88.8352C212.527 89.7633 212.761 90.625 213.057 91.4205C213.352 92.2159 213.682 92.8636 214.045 93.3636H212.864C212.17 92.3523 211.636 91.2462 211.261 90.0455C210.89 88.8409 210.705 87.5227 210.705 86.0909ZM219.496 91.1818C218.655 91.1818 217.929 90.9962 217.32 90.625C216.714 90.25 216.246 89.7273 215.916 89.0568C215.59 88.3826 215.428 87.5985 215.428 86.7045C215.428 85.8106 215.59 85.0227 215.916 84.3409C216.246 83.6553 216.704 83.1212 217.291 82.7386C217.882 82.3523 218.571 82.1591 219.359 82.1591C219.814 82.1591 220.263 82.2348 220.706 82.3864C221.149 82.5379 221.553 82.7841 221.916 83.125C222.28 83.4621 222.57 83.9091 222.786 84.4659C223.001 85.0227 223.109 85.7083 223.109 86.5227V87.0909H216.382V85.9318H221.746C221.746 85.4394 221.647 85 221.45 84.6136C221.257 84.2273 220.981 83.9223 220.621 83.6989C220.265 83.4754 219.844 83.3636 219.359 83.3636C218.825 83.3636 218.363 83.4962 217.973 83.7614C217.587 84.0227 217.289 84.3636 217.081 84.7841C216.873 85.2045 216.768 85.6553 216.768 86.1364V86.9091C216.768 87.5682 216.882 88.1269 217.109 88.5852C217.34 89.0398 217.661 89.3864 218.07 89.625C218.479 89.8598 218.954 89.9773 219.496 89.9773C219.848 89.9773 220.166 89.928 220.45 89.8295C220.738 89.7273 220.986 89.5758 221.195 89.375C221.403 89.1705 221.564 88.9167 221.678 88.6136L222.973 88.9773C222.837 89.4167 222.607 89.803 222.286 90.1364C221.964 90.4659 221.566 90.7235 221.092 90.9091C220.619 91.0909 220.087 91.1818 219.496 91.1818ZM227.149 89.4091L227.058 90.0227C226.994 90.4545 226.895 90.9167 226.763 91.4091C226.634 91.9015 226.5 92.3655 226.359 92.8011C226.219 93.2367 226.104 93.5833 226.013 93.8409H224.99C225.039 93.5985 225.104 93.2784 225.183 92.8807C225.263 92.483 225.342 92.0379 225.422 91.5455C225.505 91.0568 225.573 90.5568 225.626 90.0455L225.695 89.4091H227.149ZM233.52 82.2727V83.4091H228.815V82.2727H233.52ZM230.224 91V81.0682C230.224 80.5682 230.342 80.1515 230.577 79.8182C230.812 79.4848 231.116 79.2348 231.491 79.0682C231.866 78.9015 232.262 78.8182 232.679 78.8182C233.009 78.8182 233.277 78.8447 233.486 78.8977C233.694 78.9508 233.849 79 233.952 79.0455L233.565 80.2045C233.497 80.1818 233.402 80.1534 233.281 80.1193C233.164 80.0852 233.009 80.0682 232.815 80.0682C232.372 80.0682 232.052 80.1799 231.855 80.4034C231.662 80.6269 231.565 80.9545 231.565 81.3864V91H230.224ZM238.263 86.0909C238.263 87.5227 238.075 88.8409 237.7 90.0455C237.329 91.2462 236.797 92.3523 236.104 93.3636H234.922C235.195 92.9886 235.448 92.5265 235.683 91.9773C235.922 91.4318 236.13 90.8333 236.308 90.1818C236.486 89.5265 236.625 88.8504 236.723 88.1534C236.825 87.4527 236.876 86.7652 236.876 86.0909C236.876 85.1894 236.789 84.2746 236.615 83.3466C236.441 82.4186 236.206 81.5568 235.911 80.7614C235.615 79.9659 235.286 79.3182 234.922 78.8182H236.104C236.797 79.8295 237.329 80.9375 237.7 82.142C238.075 83.3428 238.263 84.6591 238.263 86.0909ZM243.196 89.4091L243.105 90.0227C243.041 90.4545 242.942 90.9167 242.81 91.4091C242.681 91.9015 242.546 92.3655 242.406 92.8011C242.266 93.2367 242.151 93.5833 242.06 93.8409H241.037C241.086 93.5985 241.151 93.2784 241.23 92.8807C241.31 92.483 241.389 92.0379 241.469 91.5455C241.552 91.0568 241.62 90.5568 241.673 90.0455L241.741 89.4091H243.196ZM251.717 77.56H252.933V83.016H251.717V77.56ZM248.229 83.576V86.44H256.597V83.576H248.229ZM247.093 82.44H257.813V87.56H247.093V82.44ZM252.277 79.272H259.013V80.408H252.277V79.272ZM249.877 88.952L251.029 88.856C251.253 89.896 251.429 91.208 251.445 91.992L250.213 92.152C250.213 91.336 250.085 89.992 249.877 88.952ZM253.189 88.968L254.277 88.744C254.773 89.704 255.301 91 255.493 91.816L254.309 92.104C254.149 91.304 253.669 89.976 253.189 88.968ZM256.453 88.84L257.525 88.44C258.341 89.432 259.269 90.792 259.653 91.688L258.517 92.152C258.149 91.272 257.269 89.864 256.453 88.84ZM247.285 88.536L248.421 88.824C247.893 90.072 247.077 91.432 246.213 92.28L245.109 91.736C245.957 91.016 246.789 89.72 247.285 88.536ZM262.158 86.0909C262.158 84.6591 262.343 83.3428 262.714 82.142C263.089 80.9375 263.624 79.8295 264.317 78.8182H265.499C265.226 79.1932 264.97 79.6553 264.732 80.2045C264.497 80.75 264.29 81.3504 264.112 82.0057C263.934 82.6572 263.794 83.3314 263.692 84.0284C263.593 84.7254 263.544 85.4129 263.544 86.0909C263.544 86.9924 263.631 87.9072 263.805 88.8352C263.98 89.7633 264.214 90.625 264.51 91.4205C264.805 92.2159 265.135 92.8636 265.499 93.3636H264.317C263.624 92.3523 263.089 91.2462 262.714 90.0455C262.343 88.8409 262.158 87.5227 262.158 86.0909ZM270.812 94.4545C270.165 94.4545 269.608 94.3712 269.142 94.2045C268.676 94.0417 268.288 93.8258 267.977 93.5568C267.67 93.2917 267.426 93.0076 267.244 92.7045L268.312 91.9545C268.434 92.1136 268.587 92.2955 268.773 92.5C268.958 92.7083 269.212 92.8883 269.534 93.0398C269.86 93.1951 270.286 93.2727 270.812 93.2727C271.517 93.2727 272.098 93.1023 272.557 92.7614C273.015 92.4205 273.244 91.8864 273.244 91.1591V89.3864H273.131C273.032 89.5455 272.892 89.7424 272.71 89.9773C272.532 90.2083 272.275 90.4148 271.938 90.5966C271.604 90.7746 271.153 90.8636 270.585 90.8636C269.881 90.8636 269.248 90.697 268.688 90.3636C268.131 90.0303 267.689 89.5455 267.364 88.9091C267.042 88.2727 266.881 87.5 266.881 86.5909C266.881 85.697 267.038 84.9186 267.352 84.2557C267.667 83.589 268.104 83.0739 268.665 82.7102C269.225 82.3428 269.873 82.1591 270.608 82.1591C271.176 82.1591 271.627 82.2538 271.96 82.4432C272.297 82.6288 272.555 82.8409 272.733 83.0795C272.915 83.3144 273.055 83.5076 273.153 83.6591H273.29V82.2727H274.585V91.25C274.585 92 274.415 92.6098 274.074 93.0795C273.737 93.553 273.282 93.8996 272.71 94.1193C272.142 94.3428 271.509 94.4545 270.812 94.4545ZM270.767 89.6591C271.305 89.6591 271.759 89.536 272.131 89.2898C272.502 89.0436 272.784 88.6894 272.977 88.2273C273.17 87.7652 273.267 87.2121 273.267 86.5682C273.267 85.9394 273.172 85.3845 272.983 84.9034C272.794 84.4223 272.513 84.0455 272.142 83.7727C271.771 83.5 271.313 83.3636 270.767 83.3636C270.199 83.3636 269.725 83.5076 269.347 83.7955C268.972 84.0833 268.689 84.4697 268.5 84.9545C268.314 85.4394 268.222 85.9773 268.222 86.5682C268.222 87.1742 268.316 87.7102 268.506 88.1761C268.699 88.6383 268.983 89.0019 269.358 89.267C269.737 89.5284 270.206 89.6591 270.767 89.6591ZM279.04 89.4091L278.949 90.0227C278.884 90.4545 278.786 90.9167 278.653 91.4091C278.525 91.9015 278.39 92.3655 278.25 92.8011C278.11 93.2367 277.994 93.5833 277.903 93.8409H276.881C276.93 93.5985 276.994 93.2784 277.074 92.8807C277.153 92.483 277.233 92.0379 277.312 91.5455C277.396 91.0568 277.464 90.5568 277.517 90.0455L277.585 89.4091H279.04ZM282.865 85.75V91H281.524V79.3636H282.865V83.6364H282.979C283.183 83.1856 283.49 82.8277 283.899 82.5625C284.312 82.2936 284.861 82.1591 285.547 82.1591C286.142 82.1591 286.662 82.2784 287.109 82.517C287.556 82.7519 287.903 83.1136 288.149 83.6023C288.399 84.0871 288.524 84.7045 288.524 85.4545V91H287.183V85.5455C287.183 84.8523 287.003 84.3163 286.643 83.9375C286.287 83.5549 285.793 83.3636 285.161 83.3636C284.721 83.3636 284.327 83.4564 283.979 83.642C283.634 83.8277 283.361 84.0985 283.161 84.4545C282.964 84.8106 282.865 85.2424 282.865 85.75ZM293.841 86.0909C293.841 87.5227 293.653 88.8409 293.278 90.0455C292.907 91.2462 292.375 92.3523 291.682 93.3636H290.5C290.773 92.9886 291.027 92.5265 291.261 91.9773C291.5 91.4318 291.708 90.8333 291.886 90.1818C292.064 89.5265 292.203 88.8504 292.301 88.1534C292.403 87.4527 292.455 86.7652 292.455 86.0909C292.455 85.1894 292.367 84.2746 292.193 83.3466C292.019 82.4186 291.784 81.5568 291.489 80.7614C291.193 79.9659 290.864 79.3182 290.5 78.8182H291.682C292.375 79.8295 292.907 80.9375 293.278 82.142C293.653 83.3428 293.841 84.6591 293.841 86.0909ZM298.774 89.4091L298.683 90.0227C298.619 90.4545 298.52 90.9167 298.388 91.4091C298.259 91.9015 298.125 92.3655 297.984 92.8011C297.844 93.2367 297.729 93.5833 297.638 93.8409H296.615C296.664 93.5985 296.729 93.2784 296.808 92.8807C296.888 92.483 296.967 92.0379 297.047 91.5455C297.13 91.0568 297.198 90.5568 297.251 90.0455L297.32 89.4091H298.774ZM302.236 91.0909C301.955 91.0909 301.715 90.9905 301.514 90.7898C301.313 90.589 301.213 90.3485 301.213 90.0682C301.213 89.7879 301.313 89.5473 301.514 89.3466C301.715 89.1458 301.955 89.0455 302.236 89.0455C302.516 89.0455 302.757 89.1458 302.957 89.3466C303.158 89.5473 303.259 89.7879 303.259 90.0682C303.259 90.2538 303.211 90.4242 303.116 90.5795C303.026 90.7348 302.902 90.8598 302.747 90.9545C302.596 91.0455 302.425 91.0909 302.236 91.0909ZM306.599 91.0909C306.319 91.0909 306.079 90.9905 305.878 90.7898C305.677 90.589 305.577 90.3485 305.577 90.0682C305.577 89.7879 305.677 89.5473 305.878 89.3466C306.079 89.1458 306.319 89.0455 306.599 89.0455C306.88 89.0455 307.12 89.1458 307.321 89.3466C307.522 89.5473 307.622 89.7879 307.622 90.0682C307.622 90.2538 307.575 90.4242 307.48 90.5795C307.389 90.7348 307.266 90.8598 307.111 90.9545C306.959 91.0455 306.789 91.0909 306.599 91.0909ZM310.963 91.0909C310.683 91.0909 310.442 90.9905 310.241 90.7898C310.041 90.589 309.94 90.3485 309.94 90.0682C309.94 89.7879 310.041 89.5473 310.241 89.3466C310.442 89.1458 310.683 89.0455 310.963 89.0455C311.243 89.0455 311.484 89.1458 311.685 89.3466C311.885 89.5473 311.986 89.7879 311.986 90.0682C311.986 90.2538 311.938 90.4242 311.844 90.5795C311.753 90.7348 311.63 90.8598 311.474 90.9545C311.323 91.0455 311.152 91.0909 310.963 91.0909Z" fill="black"/>
<path d="M200.264 116.56H201.48V122.016H200.264V116.56ZM196.776 122.576V125.44H205.144V122.576H196.776ZM195.64 121.44H206.36V126.56H195.64V121.44ZM200.824 118.272H207.56V119.408H200.824V118.272ZM198.424 127.952L199.576 127.856C199.8 128.896 199.976 130.208 199.992 130.992L198.76 131.152C198.76 130.336 198.632 128.992 198.424 127.952ZM201.736 127.968L202.824 127.744C203.32 128.704 203.848 130 204.04 130.816L202.856 131.104C202.696 130.304 202.216 128.976 201.736 127.968ZM205 127.84L206.072 127.44C206.888 128.432 207.816 129.792 208.2 130.688L207.064 131.152C206.696 130.272 205.816 128.864 205 127.84ZM195.832 127.536L196.968 127.824C196.44 129.072 195.624 130.432 194.76 131.28L193.656 130.736C194.504 130.016 195.336 128.72 195.832 127.536ZM210.705 125.091C210.705 123.659 210.89 122.343 211.261 121.142C211.636 119.937 212.17 118.83 212.864 117.818H214.045C213.773 118.193 213.517 118.655 213.278 119.205C213.044 119.75 212.837 120.35 212.659 121.006C212.481 121.657 212.341 122.331 212.239 123.028C212.14 123.725 212.091 124.413 212.091 125.091C212.091 125.992 212.178 126.907 212.352 127.835C212.527 128.763 212.761 129.625 213.057 130.42C213.352 131.216 213.682 131.864 214.045 132.364H212.864C212.17 131.352 211.636 130.246 211.261 129.045C210.89 127.841 210.705 126.523 210.705 125.091ZM216.024 130V121.273H217.365V130H216.024ZM216.706 119.818C216.445 119.818 216.219 119.729 216.03 119.551C215.844 119.373 215.751 119.159 215.751 118.909C215.751 118.659 215.844 118.445 216.03 118.267C216.219 118.089 216.445 118 216.706 118C216.967 118 217.191 118.089 217.376 118.267C217.566 118.445 217.661 118.659 217.661 118.909C217.661 119.159 217.566 119.373 217.376 119.551C217.191 119.729 216.967 119.818 216.706 119.818ZM221.821 128.409L221.73 129.023C221.666 129.455 221.567 129.917 221.435 130.409C221.306 130.902 221.171 131.366 221.031 131.801C220.891 132.237 220.776 132.583 220.685 132.841H219.662C219.711 132.598 219.776 132.278 219.855 131.881C219.935 131.483 220.014 131.038 220.094 130.545C220.177 130.057 220.245 129.557 220.298 129.045L220.366 128.409H221.821ZM224.305 121.273H225.646V130.636C225.646 131.174 225.554 131.64 225.368 132.034C225.186 132.428 224.91 132.733 224.538 132.949C224.171 133.165 223.707 133.273 223.146 133.273C223.101 133.273 223.055 133.273 223.01 133.273C222.964 133.273 222.919 133.273 222.874 133.273V132.023C222.919 132.023 222.961 132.023 222.999 132.023C223.036 132.023 223.078 132.023 223.124 132.023C223.533 132.023 223.832 131.902 224.021 131.659C224.211 131.42 224.305 131.08 224.305 130.636V121.273ZM224.964 119.818C224.703 119.818 224.478 119.729 224.288 119.551C224.103 119.373 224.01 119.159 224.01 118.909C224.01 118.659 224.103 118.445 224.288 118.267C224.478 118.089 224.703 118 224.964 118C225.226 118 225.449 118.089 225.635 118.267C225.824 118.445 225.919 118.659 225.919 118.909C225.919 119.159 225.824 119.373 225.635 119.551C225.449 119.729 225.226 119.818 224.964 119.818ZM231.513 125.091C231.513 126.523 231.325 127.841 230.95 129.045C230.579 130.246 230.047 131.352 229.354 132.364H228.172C228.445 131.989 228.698 131.527 228.933 130.977C229.172 130.432 229.38 129.833 229.558 129.182C229.736 128.527 229.875 127.85 229.973 127.153C230.075 126.453 230.126 125.765 230.126 125.091C230.126 124.189 230.039 123.275 229.865 122.347C229.691 121.419 229.456 120.557 229.161 119.761C228.865 118.966 228.536 118.318 228.172 117.818H229.354C230.047 118.83 230.579 119.937 230.95 121.142C231.325 122.343 231.513 123.659 231.513 125.091ZM236.446 128.409L236.355 129.023C236.291 129.455 236.192 129.917 236.06 130.409C235.931 130.902 235.796 131.366 235.656 131.801C235.516 132.237 235.401 132.583 235.31 132.841H234.287C234.336 132.598 234.401 132.278 234.48 131.881C234.56 131.483 234.639 131.038 234.719 130.545C234.802 130.057 234.87 129.557 234.923 129.045L234.991 128.409H236.446ZM244.967 116.56H246.183V122.016H244.967V116.56ZM241.479 122.576V125.44H249.847V122.576H241.479ZM240.343 121.44H251.063V126.56H240.343V121.44ZM245.527 118.272H252.263V119.408H245.527V118.272ZM243.127 127.952L244.279 127.856C244.503 128.896 244.679 130.208 244.695 130.992L243.463 131.152C243.463 130.336 243.335 128.992 243.127 127.952ZM246.439 127.968L247.527 127.744C248.023 128.704 248.551 130 248.743 130.816L247.559 131.104C247.399 130.304 246.919 128.976 246.439 127.968ZM249.703 127.84L250.775 127.44C251.591 128.432 252.519 129.792 252.903 130.688L251.767 131.152C251.399 130.272 250.519 128.864 249.703 127.84ZM240.535 127.536L241.671 127.824C241.143 129.072 240.327 130.432 239.463 131.28L238.359 130.736C239.207 130.016 240.039 128.72 240.535 127.536ZM255.408 125.091C255.408 123.659 255.593 122.343 255.964 121.142C256.339 119.937 256.874 118.83 257.567 117.818H258.749C258.476 118.193 258.22 118.655 257.982 119.205C257.747 119.75 257.54 120.35 257.362 121.006C257.184 121.657 257.044 122.331 256.942 123.028C256.843 123.725 256.794 124.413 256.794 125.091C256.794 125.992 256.881 126.907 257.055 127.835C257.23 128.763 257.464 129.625 257.76 130.42C258.055 131.216 258.385 131.864 258.749 132.364H257.567C256.874 131.352 256.339 130.246 255.964 129.045C255.593 127.841 255.408 126.523 255.408 125.091ZM261.977 126.818L261.955 125.159H262.227L266.045 121.273H267.705L263.636 125.386H263.523L261.977 126.818ZM260.727 130V118.364H262.068V130H260.727ZM266.273 130L262.864 125.682L263.818 124.75L267.977 130H266.273ZM271.43 128.409L271.339 129.023C271.275 129.455 271.177 129.917 271.044 130.409C270.915 130.902 270.781 131.366 270.641 131.801C270.5 132.237 270.385 132.583 270.294 132.841H269.271C269.321 132.598 269.385 132.278 269.464 131.881C269.544 131.483 269.624 131.038 269.703 130.545C269.786 130.057 269.855 129.557 269.908 129.045L269.976 128.409H271.43ZM275.256 118.364V130H273.915V118.364H275.256ZM280.575 125.091C280.575 126.523 280.388 127.841 280.013 129.045C279.642 130.246 279.109 131.352 278.416 132.364H277.234C277.507 131.989 277.761 131.527 277.996 130.977C278.234 130.432 278.443 129.833 278.621 129.182C278.799 128.527 278.937 127.85 279.036 127.153C279.138 126.453 279.189 125.765 279.189 125.091C279.189 124.189 279.102 123.275 278.928 122.347C278.753 121.419 278.518 120.557 278.223 119.761C277.928 118.966 277.598 118.318 277.234 117.818H278.416C279.109 118.83 279.642 119.937 280.013 121.142C280.388 122.343 280.575 123.659 280.575 125.091ZM285.509 128.409L285.418 129.023C285.353 129.455 285.255 129.917 285.122 130.409C284.993 130.902 284.859 131.366 284.719 131.801C284.579 132.237 284.463 132.583 284.372 132.841H283.349C283.399 132.598 283.463 132.278 283.543 131.881C283.622 131.483 283.702 131.038 283.781 130.545C283.865 130.057 283.933 129.557 283.986 129.045L284.054 128.409H285.509ZM288.97 130.091C288.69 130.091 288.449 129.991 288.249 129.79C288.048 129.589 287.947 129.348 287.947 129.068C287.947 128.788 288.048 128.547 288.249 128.347C288.449 128.146 288.69 128.045 288.97 128.045C289.25 128.045 289.491 128.146 289.692 128.347C289.893 128.547 289.993 128.788 289.993 129.068C289.993 129.254 289.946 129.424 289.851 129.58C289.76 129.735 289.637 129.86 289.482 129.955C289.33 130.045 289.16 130.091 288.97 130.091ZM293.334 130.091C293.054 130.091 292.813 129.991 292.612 129.79C292.411 129.589 292.311 129.348 292.311 129.068C292.311 128.788 292.411 128.547 292.612 128.347C292.813 128.146 293.054 128.045 293.334 128.045C293.614 128.045 293.855 128.146 294.055 128.347C294.256 128.547 294.357 128.788 294.357 129.068C294.357 129.254 294.309 129.424 294.214 129.58C294.124 129.735 294 129.86 293.845 129.955C293.694 130.045 293.523 130.091 293.334 130.091ZM297.697 130.091C297.417 130.091 297.177 129.991 296.976 129.79C296.775 129.589 296.675 129.348 296.675 129.068C296.675 128.788 296.775 128.547 296.976 128.347C297.177 128.146 297.417 128.045 297.697 128.045C297.978 128.045 298.218 128.146 298.419 128.347C298.62 128.547 298.72 128.788 298.72 129.068C298.72 129.254 298.673 129.424 298.578 129.58C298.487 129.735 298.364 129.86 298.209 129.955C298.057 130.045 297.887 130.091 297.697 130.091Z" fill="black"/>
<path d="M121.18 38.4C121.48 38.832 121.912 39.564 122.152 40.044L121.504 40.344C121.264 39.852 120.856 39.132 120.532 38.676L121.18 38.4ZM122.488 37.92C122.812 38.364 123.268 39.108 123.496 39.552L122.848 39.84C122.584 39.324 122.2 38.64 121.864 38.196L122.488 37.92ZM121.972 40.788C121.876 40.968 121.756 41.244 121.696 41.436C121.372 42.636 120.628 44.268 119.572 45.564C118.48 46.896 117.04 48 114.784 48.828L113.92 48.048C116.128 47.4 117.616 46.308 118.708 45.036C119.644 43.932 120.376 42.384 120.628 41.292H116.176L116.56 40.428C117.052 40.428 120.016 40.428 120.388 40.428C120.712 40.428 120.976 40.392 121.18 40.308L121.972 40.788ZM117.952 38.976C117.76 39.288 117.544 39.696 117.424 39.924C116.716 41.244 115.456 42.96 113.536 44.244L112.696 43.62C114.772 42.384 115.948 40.644 116.476 39.564C116.596 39.36 116.776 38.916 116.848 38.616L117.952 38.976ZM130.276 47.748C130.324 47.568 130.36 47.316 130.36 47.076C130.36 46.524 130.36 40.644 130.36 39.888C130.36 39.432 130.3 39.096 130.3 39H131.404C131.392 39.096 131.344 39.444 131.344 39.9C131.344 40.644 131.344 46.452 131.344 46.812C132.46 46.308 133.936 45.216 134.848 43.86L135.424 44.688C134.38 46.092 132.724 47.316 131.332 48.012C131.128 48.108 131.008 48.216 130.912 48.276L130.276 47.748ZM124.78 47.7C125.8 46.98 126.508 45.912 126.868 44.748C127.228 43.644 127.228 41.256 127.228 39.912C127.228 39.564 127.204 39.3 127.144 39.048H128.248C128.236 39.18 128.188 39.552 128.188 39.9C128.188 41.232 128.152 43.812 127.828 45.012C127.468 46.296 126.7 47.46 125.692 48.3L124.78 47.7ZM137.212 42.804C137.584 42.84 138.208 42.876 138.892 42.876C139.768 42.876 144.58 42.876 145.468 42.876C146.068 42.876 146.488 42.828 146.764 42.804V43.98C146.512 43.968 146.008 43.932 145.48 43.932C144.568 43.932 139.78 43.932 138.892 43.932C138.232 43.932 137.596 43.956 137.212 43.98V42.804ZM156.945 39.384C156.945 39.828 157.293 40.176 157.737 40.176C158.169 40.176 158.529 39.828 158.529 39.384C158.529 38.952 158.169 38.592 157.737 38.592C157.293 38.592 156.945 38.952 156.945 39.384ZM156.393 39.384C156.393 38.64 156.993 38.04 157.737 38.04C158.481 38.04 159.081 38.64 159.081 39.384C159.081 40.128 158.481 40.728 157.737 40.728C156.993 40.728 156.393 40.128 156.393 39.384ZM157.437 40.188C157.353 40.356 157.305 40.56 157.257 40.788C156.993 42.048 156.417 43.992 155.457 45.216C154.365 46.632 152.937 47.736 150.741 48.432L149.925 47.532C152.253 46.944 153.597 45.924 154.605 44.64C155.457 43.56 156.009 41.88 156.177 40.728C155.481 40.728 150.729 40.728 150.033 40.728C149.553 40.728 149.145 40.752 148.845 40.776V39.708C149.169 39.744 149.649 39.792 150.045 39.792C150.729 39.792 155.517 39.792 156.057 39.792C156.249 39.792 156.477 39.78 156.705 39.72L157.437 40.188Z" fill="black"/>
<path d="M121.18 78.4C121.48 78.832 121.912 79.564 122.152 80.044L121.504 80.344C121.264 79.852 120.856 79.132 120.532 78.676L121.18 78.4ZM122.488 77.92C122.812 78.364 123.268 79.108 123.496 79.552L122.848 79.84C122.584 79.324 122.2 78.64 121.864 78.196L122.488 77.92ZM121.972 80.788C121.876 80.968 121.756 81.244 121.696 81.436C121.372 82.636 120.628 84.268 119.572 85.564C118.48 86.896 117.04 88 114.784 88.828L113.92 88.048C116.128 87.4 117.616 86.308 118.708 85.036C119.644 83.932 120.376 82.384 120.628 81.292H116.176L116.56 80.428C117.052 80.428 120.016 80.428 120.388 80.428C120.712 80.428 120.976 80.392 121.18 80.308L121.972 80.788ZM117.952 78.976C117.76 79.288 117.544 79.696 117.424 79.924C116.716 81.244 115.456 82.96 113.536 84.244L112.696 83.62C114.772 82.384 115.948 80.644 116.476 79.564C116.596 79.36 116.776 78.916 116.848 78.616L117.952 78.976ZM130.276 87.748C130.324 87.568 130.36 87.316 130.36 87.076C130.36 86.524 130.36 80.644 130.36 79.888C130.36 79.432 130.3 79.096 130.3 79H131.404C131.392 79.096 131.344 79.444 131.344 79.9C131.344 80.644 131.344 86.452 131.344 86.812C132.46 86.308 133.936 85.216 134.848 83.86L135.424 84.688C134.38 86.092 132.724 87.316 131.332 88.012C131.128 88.108 131.008 88.216 130.912 88.276L130.276 87.748ZM124.78 87.7C125.8 86.98 126.508 85.912 126.868 84.748C127.228 83.644 127.228 81.256 127.228 79.912C127.228 79.564 127.204 79.3 127.144 79.048H128.248C128.236 79.18 128.188 79.552 128.188 79.9C128.188 81.232 128.152 83.812 127.828 85.012C127.468 86.296 126.7 87.46 125.692 88.3L124.78 87.7ZM137.212 82.804C137.584 82.84 138.208 82.876 138.892 82.876C139.768 82.876 144.58 82.876 145.468 82.876C146.068 82.876 146.488 82.828 146.764 82.804V83.98C146.512 83.968 146.008 83.932 145.48 83.932C144.568 83.932 139.78 83.932 138.892 83.932C138.232 83.932 137.596 83.956 137.212 83.98V82.804ZM156.945 79.384C156.945 79.828 157.293 80.176 157.737 80.176C158.169 80.176 158.529 79.828 158.529 79.384C158.529 78.952 158.169 78.592 157.737 78.592C157.293 78.592 156.945 78.952 156.945 79.384ZM156.393 79.384C156.393 78.64 156.993 78.04 157.737 78.04C158.481 78.04 159.081 78.64 159.081 79.384C159.081 80.128 158.481 80.728 157.737 80.728C156.993 80.728 156.393 80.128 156.393 79.384ZM157.437 80.188C157.353 80.356 157.305 80.56 157.257 80.788C156.993 82.048 156.417 83.992 155.457 85.216C154.365 86.632 152.937 87.736 150.741 88.432L149.925 87.532C152.253 86.944 153.597 85.924 154.605 84.64C155.457 83.56 156.009 81.88 156.177 80.728C155.481 80.728 150.729 80.728 150.033 80.728C149.553 80.728 149.145 80.752 148.845 80.776V79.708C149.169 79.744 149.649 79.792 150.045 79.792C150.729 79.792 155.517 79.792 156.057 79.792C156.249 79.792 156.477 79.78 156.705 79.72L157.437 80.188Z" fill="black"/>
<path d="M121.18 117.4C121.48 117.832 121.912 118.564 122.152 119.044L121.504 119.344C121.264 118.852 120.856 118.132 120.532 117.676L121.18 117.4ZM122.488 116.92C122.812 117.364 123.268 118.108 123.496 118.552L122.848 118.84C122.584 118.324 122.2 117.64 121.864 117.196L122.488 116.92ZM121.972 119.788C121.876 119.968 121.756 120.244 121.696 120.436C121.372 121.636 120.628 123.268 119.572 124.564C118.48 125.896 117.04 127 114.784 127.828L113.92 127.048C116.128 126.4 117.616 125.308 118.708 124.036C119.644 122.932 120.376 121.384 120.628 120.292H116.176L116.56 119.428C117.052 119.428 120.016 119.428 120.388 119.428C120.712 119.428 120.976 119.392 121.18 119.308L121.972 119.788ZM117.952 117.976C117.76 118.288 117.544 118.696 117.424 118.924C116.716 120.244 115.456 121.96 113.536 123.244L112.696 122.62C114.772 121.384 115.948 119.644 116.476 118.564C116.596 118.36 116.776 117.916 116.848 117.616L117.952 117.976ZM130.276 126.748C130.324 126.568 130.36 126.316 130.36 126.076C130.36 125.524 130.36 119.644 130.36 118.888C130.36 118.432 130.3 118.096 130.3 118H131.404C131.392 118.096 131.344 118.444 131.344 118.9C131.344 119.644 131.344 125.452 131.344 125.812C132.46 125.308 133.936 124.216 134.848 122.86L135.424 123.688C134.38 125.092 132.724 126.316 131.332 127.012C131.128 127.108 131.008 127.216 130.912 127.276L130.276 126.748ZM124.78 126.7C125.8 125.98 126.508 124.912 126.868 123.748C127.228 122.644 127.228 120.256 127.228 118.912C127.228 118.564 127.204 118.3 127.144 118.048H128.248C128.236 118.18 128.188 118.552 128.188 118.9C128.188 120.232 128.152 122.812 127.828 124.012C127.468 125.296 126.7 126.46 125.692 127.3L124.78 126.7ZM137.212 121.804C137.584 121.84 138.208 121.876 138.892 121.876C139.768 121.876 144.58 121.876 145.468 121.876C146.068 121.876 146.488 121.828 146.764 121.804V122.98C146.512 122.968 146.008 122.932 145.48 122.932C144.568 122.932 139.78 122.932 138.892 122.932C138.232 122.932 137.596 122.956 137.212 122.98V121.804ZM156.945 118.384C156.945 118.828 157.293 119.176 157.737 119.176C158.169 119.176 158.529 118.828 158.529 118.384C158.529 117.952 158.169 117.592 157.737 117.592C157.293 117.592 156.945 117.952 156.945 118.384ZM156.393 118.384C156.393 117.64 156.993 117.04 157.737 117.04C158.481 117.04 159.081 117.64 159.081 118.384C159.081 119.128 158.481 119.728 157.737 119.728C156.993 119.728 156.393 119.128 156.393 118.384ZM157.437 119.188C157.353 119.356 157.305 119.56 157.257 119.788C156.993 121.048 156.417 122.992 155.457 124.216C154.365 125.632 152.937 126.736 150.741 127.432L149.925 126.532C152.253 125.944 153.597 124.924 154.605 123.64C155.457 122.56 156.009 120.88 156.177 119.728C155.481 119.728 150.729 119.728 150.033 119.728C149.553 119.728 149.145 119.752 148.845 119.776V118.708C149.169 118.744 149.649 118.792 150.045 118.792C150.729 118.792 155.517 118.792 156.057 118.792C156.249 118.792 156.477 118.78 156.705 118.72L157.437 119.188Z" fill="black"/>
<path d="M193 57H243" stroke="#59B2D8" stroke-width="3" stroke-linecap="round"/>
<path d="M250 57H300" stroke="#D86859" stroke-width="3" stroke-linecap="round"/>
<path d="M253 15H343" stroke="#D86859" stroke-width="3" stroke-linecap="round"/>
<path d="M148 15H241" stroke="#59B2D8" stroke-width="3" stroke-linecap="round"/>
<path d="M221.646 34.3536C221.842 34.5488 222.158 34.5488 222.354 34.3536L225.536 31.1716C225.731 30.9763 225.731 30.6597 225.536 30.4645C225.34 30.2692 225.024 30.2692 224.828 30.4645L222 33.2929L219.172 30.4645C218.976 30.2692 218.66 30.2692 218.464 30.4645C218.269 30.6597 218.269 30.9763 218.464 31.1716L221.646 34.3536ZM221.5 20L221.5 34L222.5 34L222.5 20L221.5 20Z" fill="black"/>
<path d="M273.646 34.3536C273.842 34.5488 274.158 34.5488 274.354 34.3536L277.536 31.1716C277.731 30.9763 277.731 30.6597 277.536 30.4645C277.34 30.2692 277.024 30.2692 276.828 30.4645L274 33.2929L271.172 30.4645C270.976 30.2692 270.66 30.2692 270.464 30.4645C270.269 30.6597 270.269 30.9763 270.464 31.1716L273.646 34.3536ZM273.5 20L273.5 34L274.5 34L274.5 20L273.5 20Z" fill="black"/>
</svg>
