<svg width="402" height="188" viewBox="0 0 402 188" fill="none" xmlns="http://www.w3.org/2000/svg">
<path d="M294 0.5C148.8 218.5 69.1667 113.333 47.5 33.5" stroke="black"/>
<line x1="305.359" y1="3.34839" x2="135.359" y2="178.348" stroke="#FF0000"/>
<line x1="18" y1="162.5" x2="384" y2="162.5" stroke="black"/>
<path d="M239.903 182V181.233L242.784 178.08C243.122 177.71 243.401 177.389 243.619 177.116C243.838 176.841 244 176.582 244.105 176.341C244.213 176.097 244.267 175.841 244.267 175.574C244.267 175.267 244.193 175.001 244.045 174.777C243.901 174.553 243.702 174.379 243.449 174.257C243.196 174.135 242.912 174.074 242.597 174.074C242.261 174.074 241.969 174.143 241.719 174.283C241.472 174.419 241.28 174.611 241.143 174.858C241.01 175.105 240.943 175.395 240.943 175.727H239.938C239.938 175.216 240.055 174.767 240.291 174.381C240.527 173.994 240.848 173.693 241.254 173.477C241.663 173.261 242.122 173.153 242.631 173.153C243.142 173.153 243.595 173.261 243.99 173.477C244.385 173.693 244.695 173.984 244.919 174.351C245.143 174.717 245.256 175.125 245.256 175.574C245.256 175.895 245.197 176.209 245.081 176.516C244.967 176.82 244.768 177.159 244.484 177.534C244.203 177.906 243.812 178.361 243.312 178.898L241.352 180.994V181.062H245.409V182H239.903Z" fill="black"/>
<line x1="240" y1="163.024" x2="240" y2="70.9755" stroke="black" stroke-dasharray="2 2"/>
<path d="M285.381 77.816C285.225 79.064 284.985 80.468 284.613 81.752C283.881 84.212 282.921 85.484 281.817 85.484C280.737 85.484 279.669 84.26 279.669 82.268C279.669 79.664 281.985 77.396 284.925 77.396C287.733 77.396 289.521 79.376 289.521 81.812C289.521 84.32 287.865 86 285.009 86.372L284.457 85.484C284.841 85.448 285.201 85.4 285.489 85.34C287.025 84.992 288.537 83.84 288.537 81.764C288.537 79.844 287.205 78.26 284.901 78.26C282.261 78.26 280.617 80.432 280.617 82.196C280.617 83.708 281.301 84.38 281.841 84.38C282.405 84.38 283.053 83.564 283.665 81.536C284.013 80.396 284.265 79.04 284.385 77.792L285.381 77.816ZM333.21 77.9C334.518 78.128 336.954 78.08 338.142 77.9V78.872C336.858 79.016 334.53 79.016 333.222 78.872L333.21 77.9ZM333.678 82.796C333.57 83.228 333.51 83.564 333.51 83.888C333.51 84.44 333.894 84.98 335.538 84.98C336.606 84.98 337.542 84.884 338.502 84.656L338.526 85.664C337.782 85.82 336.774 85.916 335.526 85.916C333.522 85.916 332.622 85.244 332.622 84.116C332.622 83.72 332.682 83.288 332.814 82.712L333.678 82.796ZM330.93 76.976C330.858 77.18 330.762 77.564 330.714 77.78C330.486 78.896 330.114 81.032 330.114 82.388C330.114 82.964 330.15 83.468 330.222 84.056C330.426 83.516 330.702 82.796 330.906 82.304L331.41 82.7C331.11 83.552 330.666 84.812 330.558 85.388C330.522 85.556 330.498 85.784 330.498 85.928C330.51 86.048 330.522 86.216 330.534 86.348L329.682 86.408C329.442 85.556 329.238 84.176 329.238 82.544C329.238 80.78 329.634 78.728 329.778 77.732C329.814 77.456 329.85 77.156 329.862 76.892L330.93 76.976ZM259.92 91.424C259.884 91.64 259.86 91.964 259.848 92.252C259.812 92.96 259.752 94.796 259.752 96.044C259.752 97.292 259.812 99.164 259.812 99.92C259.812 101.024 259.404 101.384 258.744 101.384C257.808 101.384 256.248 100.472 256.248 99.392C256.248 98.336 257.676 97.22 259.164 96.656C260.232 96.236 261.432 96.02 262.38 96.02C264.144 96.02 265.404 96.968 265.404 98.408C265.404 99.86 264.492 100.784 262.836 101.168C262.308 101.288 261.768 101.312 261.348 101.336L261.012 100.376C261.468 100.376 261.972 100.388 262.428 100.292C263.472 100.088 264.432 99.524 264.432 98.408C264.432 97.388 263.508 96.848 262.38 96.848C261.3 96.848 260.316 97.076 259.296 97.484C258.12 97.94 257.196 98.744 257.196 99.356C257.196 99.896 258.036 100.376 258.504 100.376C258.78 100.376 258.936 100.184 258.936 99.788C258.936 99.092 258.876 97.424 258.876 96.092C258.876 94.712 258.924 92.756 258.924 92.264C258.924 92.036 258.9 91.616 258.864 91.424H259.92ZM263.652 92.756C264.504 93.2 265.812 94.016 266.388 94.496L265.908 95.264C265.32 94.712 263.976 93.884 263.208 93.476L263.652 92.756ZM256.452 93.572C257.112 93.656 257.544 93.668 257.976 93.668C259.164 93.668 261.072 93.416 262.26 93.056L262.284 93.992C261.048 94.292 259.08 94.556 258 94.556C257.328 94.556 256.872 94.532 256.476 94.496L256.452 93.572ZM276.132 91.652C276.096 91.844 276.084 92.084 276.084 92.36C276.072 92.804 276.12 94.832 276.12 95.504C276.12 98.252 276.12 100.22 273.576 101.708L272.7 101.036C273.072 100.88 273.564 100.58 273.864 100.28C275.148 99.164 275.208 97.796 275.208 95.492C275.208 94.724 275.16 92.864 275.124 92.36C275.1 92.096 275.052 91.832 275.004 91.652H276.132ZM271.74 94.136C272.268 94.22 273.024 94.268 273.684 94.268C275.16 94.268 276.864 94.172 278.064 93.896V94.868C276.9 95.06 275.22 95.168 273.696 95.168C273.108 95.168 272.268 95.132 271.74 95.084V94.136ZM270.06 91.832C269.988 92.048 269.904 92.384 269.856 92.612C269.472 94.352 269.052 96.98 269.52 98.948C269.676 98.432 269.94 97.7 270.156 97.112L270.672 97.424C270.384 98.252 270.024 99.476 269.892 100.076C269.856 100.244 269.832 100.472 269.844 100.616C269.844 100.736 269.868 100.892 269.88 101.024L269.052 101.12C268.812 100.376 268.428 98.816 268.428 97.316C268.428 95.36 268.74 93.524 268.884 92.516C268.92 92.252 268.932 91.928 268.944 91.712L270.06 91.832ZM281.856 92.168C282.12 92.192 282.456 92.204 282.696 92.204C283.332 92.204 286.176 92.12 286.812 92.06C287.172 92.024 287.34 92 287.472 91.952L288.024 92.66C287.808 92.804 287.568 92.96 287.34 93.14C286.752 93.596 285.12 95 284.184 95.768C284.736 95.588 285.312 95.528 285.852 95.528C287.844 95.528 289.272 96.716 289.272 98.336C289.272 100.268 287.676 101.528 285.132 101.528C283.5 101.528 282.504 100.82 282.504 99.812C282.504 98.996 283.248 98.252 284.352 98.252C285.948 98.252 286.752 99.38 286.836 100.592L285.972 100.736C285.9 99.716 285.312 98.984 284.352 98.984C283.8 98.984 283.38 99.32 283.38 99.74C283.38 100.328 284.04 100.676 284.988 100.676C287.028 100.676 288.312 99.836 288.312 98.336C288.312 97.148 287.184 96.272 285.612 96.272C283.62 96.272 282.54 97.112 281.028 98.66L280.332 97.964C281.328 97.148 282.876 95.852 283.56 95.264C284.232 94.712 285.744 93.452 286.344 92.912C285.708 92.948 283.308 93.044 282.684 93.08C282.408 93.104 282.144 93.116 281.88 93.152L281.856 92.168ZM298.332 90.92H299.244V92.564H298.332V90.92ZM295.488 92.204H302.16V92.984H295.488V92.204ZM295.008 95.012H302.496V95.804H295.008V95.012ZM296.616 93.092L297.396 92.936C297.66 93.584 297.888 94.424 297.936 94.94L297.12 95.144C297.084 94.616 296.868 93.752 296.616 93.092ZM300.18 92.912L301.068 93.044C300.816 93.752 300.528 94.568 300.276 95.108L299.508 94.976C299.748 94.412 300.036 93.512 300.18 92.912ZM295.068 96.992H302.448V97.772H295.068V96.992ZM297.816 95.588L298.716 95.768C298.104 97.148 297.252 98.9 296.64 100.004L295.86 99.74C296.46 98.672 297.288 96.896 297.816 95.588ZM296.472 99.584L297 98.972C298.812 99.488 301.068 100.448 302.232 101.288L301.656 101.972C300.552 101.156 298.308 100.136 296.472 99.584ZM300.18 97.496L301.056 97.628C300.48 100.304 298.836 101.468 295.128 101.96C295.068 101.708 294.912 101.396 294.768 101.204C298.224 100.856 299.664 99.836 300.18 97.496ZM291.324 97.304C292.296 97.064 293.76 96.632 295.176 96.224L295.284 97.028C293.976 97.436 292.596 97.868 291.528 98.192L291.324 97.304ZM291.528 93.344H295.188V94.184H291.528V93.344ZM293.16 90.932H294.024V100.868C294.024 101.384 293.916 101.636 293.604 101.78C293.292 101.936 292.8 101.96 292.02 101.96C291.984 101.732 291.864 101.336 291.744 101.084C292.284 101.108 292.788 101.108 292.932 101.096C293.088 101.096 293.16 101.048 293.16 100.868V90.932ZM313.716 96.932L314.436 97.46C313.788 98.048 312.972 98.72 312.348 99.14L311.796 98.708C312.396 98.252 313.236 97.472 313.716 96.932ZM310.74 90.908L311.736 91.1C311.448 91.676 311.112 92.3 310.836 92.696L310.08 92.504C310.308 92.06 310.596 91.388 310.74 90.908ZM309.108 94.628V95.672H313.152V94.628H309.108ZM309.108 92.888V93.932H313.152V92.888H309.108ZM308.28 92.168H314.016V96.404H308.28V92.168ZM310.704 96.008H311.52V101C311.52 101.456 311.436 101.684 311.136 101.816C310.824 101.948 310.344 101.96 309.588 101.96C309.564 101.732 309.456 101.396 309.348 101.168C309.888 101.18 310.368 101.18 310.512 101.168C310.668 101.168 310.704 101.132 310.704 101V96.008ZM307.824 97.448H309.828V98.204H307.824V97.448ZM309.624 97.448H309.78L309.936 97.424L310.428 97.628C309.996 99.536 309.048 100.796 307.848 101.48C307.74 101.288 307.464 100.988 307.284 100.856C308.412 100.268 309.276 99.164 309.624 97.592V97.448ZM311.412 96.068C311.748 97.76 312.612 99.824 314.712 100.736C314.544 100.904 314.28 101.24 314.16 101.468C312.108 100.412 311.244 98.24 310.92 96.68L311.412 96.068ZM305.352 90.932L306.144 91.232C305.688 92.12 305.124 93.2 304.656 93.86L304.044 93.596C304.476 92.9 305.04 91.724 305.352 90.932ZM306.696 92.3L307.452 92.648C306.624 93.98 305.46 95.684 304.56 96.728L304.008 96.416C304.908 95.348 306.036 93.56 306.696 92.3ZM303.432 93.428L303.912 92.852C304.56 93.44 305.292 94.244 305.604 94.796L305.088 95.468C304.788 94.892 304.068 94.04 303.432 93.428ZM306.228 95.048L306.876 94.772C307.38 95.564 307.872 96.596 308.04 97.256L307.332 97.58C307.176 96.908 306.708 95.84 306.228 95.048ZM303.336 96.236C304.38 96.188 305.88 96.116 307.392 96.032V96.788C305.964 96.884 304.524 96.968 303.432 97.04L303.336 96.236ZM306.54 97.952L307.2 97.748C307.512 98.432 307.764 99.32 307.836 99.896L307.14 100.112C307.08 99.536 306.828 98.636 306.54 97.952ZM304.056 97.784L304.812 97.916C304.656 99.056 304.38 100.208 303.996 100.976C303.852 100.88 303.492 100.724 303.312 100.64C303.696 99.908 303.924 98.828 304.056 97.784ZM305.328 96.584H306.12V101.96H305.328V96.584Z" fill="black"/>
<path d="M3.91176 41.373C3.45938 41.373 3.21989 41.345 3.19328 41.289C3.17997 41.261 3.17332 41.205 3.17332 41.121C3.17332 40.785 3.2465 40.554 3.39286 40.428C3.41947 40.414 3.51926 40.407 3.69223 40.407C4.41071 40.449 5.2556 40.47 6.22689 40.47C8.10294 40.47 9.18067 40.449 9.46008 40.407H9.69958C9.77941 40.491 9.81933 40.554 9.81933 40.596C9.81933 40.638 9.80602 40.764 9.77941 40.974C9.71288 41.184 9.65301 41.317 9.59979 41.373H8.84139C7.92332 41.387 7.38445 41.45 7.22479 41.562C7.13165 41.618 7.03851 41.814 6.94538 42.15C6.85224 42.486 6.40651 44.334 5.60819 47.694C5.39531 48.604 5.16912 49.57 4.92962 50.592C4.69013 51.614 4.5105 52.384 4.39076 52.902L4.21113 53.658C4.21113 53.714 4.27101 53.742 4.39076 53.742C4.5105 53.742 4.90301 53.756 5.56828 53.784H5.90756C6.33333 53.784 6.67262 53.777 6.92542 53.763C7.17822 53.749 7.5042 53.7 7.90336 53.616C8.30252 53.532 8.63515 53.406 8.90126 53.238C9.16737 53.07 9.46008 52.832 9.77941 52.524C10.0987 52.216 10.3782 51.831 10.6176 51.369C10.8305 50.949 11.0301 50.48 11.2164 49.962C11.4027 49.444 11.5158 49.15 11.5557 49.08C11.6222 49.038 11.7353 49.017 11.895 49.017H12.1544C12.2342 49.143 12.2742 49.22 12.2742 49.248C12.2742 49.276 12.1411 49.689 11.875 50.487C11.6089 51.285 11.3162 52.125 10.9968 53.007C10.6775 53.889 10.5046 54.407 10.4779 54.561C10.4513 54.631 10.4247 54.673 10.3981 54.687C10.3715 54.701 10.2651 54.722 10.0788 54.75C9.89251 54.778 9.60644 54.785 9.22059 54.771C9.07423 54.771 8.56863 54.771 7.70378 54.771C6.83894 54.771 6.01401 54.764 5.22899 54.75H1.67647C0.558823 54.75 0 54.68 0 54.54C0 54.442 0.0133053 54.344 0.039916 54.246C0.106443 53.98 0.172969 53.833 0.239496 53.805C0.292717 53.791 0.392507 53.784 0.538866 53.784H0.658613C1.01786 53.784 1.41702 53.763 1.85609 53.721C2.04237 53.679 2.16877 53.595 2.23529 53.469C2.27521 53.413 2.7542 51.467 3.67227 47.631C4.59034 43.795 5.04937 41.772 5.04937 41.562C5.04937 41.464 4.67017 41.401 3.91176 41.373Z" fill="black"/>
<path d="M14.8287 49.5C14.8287 48.534 14.8953 47.617 15.0283 46.749C15.1614 45.881 15.3144 45.132 15.4873 44.502C15.6603 43.872 15.9065 43.256 16.2258 42.654C16.5451 42.052 16.7979 41.583 16.9842 41.247C17.1705 40.911 17.4499 40.547 17.8224 40.155C18.195 39.763 18.4145 39.525 18.481 39.441C18.5476 39.357 18.7139 39.21 18.98 39H19.2394H19.3193C19.5056 39 19.5987 39.063 19.5987 39.189C19.5987 39.231 19.4856 39.378 19.2594 39.63C19.0332 39.882 18.7605 40.253 18.4411 40.743C18.1218 41.233 17.7958 41.835 17.4632 42.549C17.1306 43.263 16.8511 44.229 16.625 45.447C16.3988 46.665 16.2857 48.016 16.2857 49.5C16.2857 50.984 16.3988 52.328 16.625 53.532C16.8511 54.736 17.1239 55.709 17.4432 56.451C17.7626 57.193 18.0885 57.795 18.4212 58.257C18.7538 58.719 19.0332 59.09 19.2594 59.37C19.4856 59.65 19.5987 59.797 19.5987 59.811C19.5987 59.937 19.4989 60 19.2993 60H19.2394H18.98L18.4212 59.496C17.1705 58.306 16.2591 56.822 15.6869 55.044C15.1148 53.266 14.8287 51.418 14.8287 49.5Z" fill="black"/>
<path d="M21.7542 48.681C21.8473 48.093 22.2066 47.414 22.8319 46.644C23.4573 45.874 24.229 45.482 25.1471 45.468C25.6127 45.468 26.0385 45.594 26.4244 45.846C26.8102 46.098 27.0963 46.413 27.2826 46.791C27.8414 45.909 28.5133 45.468 29.2983 45.468C29.7906 45.468 30.2164 45.622 30.5756 45.93C30.9349 46.238 31.1211 46.651 31.1345 47.169C31.1345 47.575 31.0413 47.904 30.855 48.156C30.6688 48.408 30.4891 48.562 30.3162 48.618C30.1432 48.674 29.9902 48.702 29.8571 48.702C29.6043 48.702 29.3981 48.625 29.2384 48.471C29.0788 48.317 28.9989 48.114 28.9989 47.862C28.9989 47.218 29.3316 46.777 29.9968 46.539C29.8505 46.357 29.5844 46.266 29.1985 46.266C29.0256 46.266 28.8992 46.28 28.8193 46.308C28.3137 46.532 27.9412 46.994 27.7017 47.694C26.9034 50.788 26.5042 52.594 26.5042 53.112C26.5042 53.504 26.6106 53.784 26.8235 53.952C27.0364 54.12 27.2693 54.204 27.5221 54.204C28.0144 54.204 28.5 53.973 28.979 53.511C29.458 53.049 29.784 52.482 29.9569 51.81C29.9968 51.67 30.0368 51.593 30.0767 51.579C30.1166 51.565 30.223 51.551 30.396 51.537H30.4758C30.6754 51.537 30.7752 51.593 30.7752 51.705C30.7752 51.719 30.7619 51.796 30.7353 51.936C30.5224 52.734 30.1099 53.441 29.4979 54.057C28.8859 54.673 28.174 54.981 27.3624 54.981C26.431 54.981 25.7258 54.54 25.2468 53.658C24.7013 54.526 24.076 54.96 23.3708 54.96H23.2511C22.5991 54.96 22.1334 54.778 21.854 54.414C21.5746 54.05 21.4282 53.665 21.4149 53.259C21.4149 52.811 21.5413 52.447 21.7941 52.167C22.0469 51.887 22.3463 51.747 22.6922 51.747C23.2644 51.747 23.5504 52.041 23.5504 52.629C23.5504 52.909 23.4706 53.154 23.3109 53.364C23.1513 53.574 22.9983 53.714 22.8519 53.784C22.7055 53.854 22.619 53.889 22.5924 53.889L22.5326 53.91C22.5326 53.924 22.5725 53.952 22.6523 53.994C22.7321 54.036 22.8386 54.085 22.9716 54.141C23.1047 54.197 23.2311 54.218 23.3508 54.204C23.8298 54.204 24.2423 53.889 24.5882 53.259C24.708 53.035 24.861 52.559 25.0473 51.831C25.2335 51.103 25.4198 50.347 25.6061 49.563C25.7924 48.779 25.8988 48.317 25.9254 48.177C25.9919 47.799 26.0252 47.526 26.0252 47.358C26.0252 46.966 25.9254 46.686 25.7258 46.518C25.5263 46.35 25.3001 46.266 25.0473 46.266C24.5151 46.266 24.0161 46.49 23.5504 46.938C23.0847 47.386 22.7588 47.96 22.5725 48.66C22.5459 48.786 22.5126 48.856 22.4727 48.87C22.4328 48.884 22.3263 48.898 22.1534 48.912H21.874C21.7941 48.828 21.7542 48.751 21.7542 48.681Z" fill="black"/>
<path d="M33.3299 39.021L33.4097 39C33.4763 39 33.5428 39 33.6093 39H33.8488L34.4076 39.504C35.6583 40.694 36.5697 42.178 37.1419 43.956C37.714 45.734 38.0001 47.582 38.0001 49.5C38.0001 50.452 37.9335 51.369 37.8005 52.251C37.6674 53.133 37.5144 53.882 37.3414 54.498C37.1685 55.114 36.9223 55.73 36.603 56.346C36.2837 56.962 36.0309 57.431 35.8446 57.753C35.6583 58.075 35.3856 58.432 35.0263 58.824C34.6671 59.216 34.4542 59.447 34.3877 59.517C34.3211 59.587 34.1681 59.72 33.9286 59.916C33.8887 59.958 33.8621 59.986 33.8488 60H33.6093C33.5029 60 33.4297 60 33.3898 60C33.3499 60 33.3166 59.979 33.29 59.937C33.2634 59.895 33.2434 59.832 33.2301 59.748C33.2434 59.734 33.3166 59.643 33.4496 59.475C35.512 57.221 36.5431 53.896 36.5431 49.5C36.5431 45.104 35.512 41.779 33.4496 39.525C33.3166 39.357 33.2434 39.266 33.2301 39.252C33.2301 39.14 33.2634 39.063 33.3299 39.021Z" fill="black"/>
<path d="M256.265 76.469C256.003 76.469 255.864 76.4517 255.849 76.417C255.841 76.3997 255.837 76.365 255.837 76.313C255.837 76.105 255.88 75.962 255.964 75.884C255.98 75.8753 256.037 75.871 256.138 75.871C256.554 75.897 257.043 75.91 257.605 75.91C258.691 75.91 259.315 75.897 259.477 75.871H259.616C259.662 75.923 259.685 75.962 259.685 75.988C259.685 76.014 259.677 76.092 259.662 76.222C259.623 76.352 259.589 76.4343 259.558 76.469H259.119C258.587 76.4777 258.275 76.5167 258.183 76.586C258.129 76.6207 258.075 76.742 258.021 76.95C257.967 77.158 257.709 78.302 257.247 80.382C257.124 80.9453 256.993 81.5433 256.854 82.176C256.715 82.8087 256.611 83.2853 256.542 83.606L256.438 84.074C256.438 84.1087 256.473 84.126 256.542 84.126C256.611 84.126 256.839 84.1347 257.224 84.152H257.42C257.667 84.152 257.863 84.1477 258.009 84.139C258.156 84.1303 258.345 84.1 258.576 84.048C258.807 83.996 258.999 83.918 259.153 83.814C259.307 83.71 259.477 83.5627 259.662 83.372C259.847 83.1813 260.008 82.943 260.147 82.657C260.27 82.397 260.386 82.1067 260.494 81.786C260.602 81.4653 260.667 81.2833 260.69 81.24C260.729 81.214 260.794 81.201 260.887 81.201H261.037C261.083 81.279 261.106 81.3267 261.106 81.344C261.106 81.3613 261.029 81.617 260.875 82.111C260.721 82.605 260.551 83.125 260.367 83.671C260.182 84.217 260.082 84.5377 260.066 84.633C260.051 84.6763 260.035 84.7023 260.02 84.711C260.005 84.7197 259.943 84.7327 259.835 84.75C259.727 84.7673 259.562 84.7717 259.338 84.763C259.254 84.763 258.961 84.763 258.46 84.763C257.959 84.763 257.482 84.7587 257.027 84.75H254.971C254.324 84.75 254 84.7067 254 84.62C254 84.5593 254.008 84.4987 254.023 84.438C254.062 84.2733 254.1 84.1823 254.139 84.165C254.169 84.1563 254.227 84.152 254.312 84.152H254.381C254.589 84.152 254.82 84.139 255.075 84.113C255.182 84.087 255.256 84.035 255.294 83.957C255.317 83.9223 255.595 82.7177 256.126 80.343C256.658 77.9683 256.923 76.716 256.923 76.586C256.923 76.5253 256.704 76.4863 256.265 76.469Z" fill="black"/>
<path d="M262.585 81.5C262.585 80.902 262.623 80.3343 262.701 79.797C262.778 79.2597 262.866 78.796 262.966 78.406C263.066 78.016 263.209 77.6347 263.394 77.262C263.579 76.8893 263.725 76.599 263.833 76.391C263.941 76.183 264.102 75.9577 264.318 75.715C264.534 75.4723 264.661 75.325 264.699 75.273C264.738 75.221 264.834 75.13 264.988 75H265.139H265.185C265.293 75 265.347 75.039 265.347 75.117C265.347 75.143 265.281 75.234 265.15 75.39C265.019 75.546 264.861 75.7757 264.676 76.079C264.491 76.3823 264.303 76.755 264.11 77.197C263.918 77.639 263.756 78.237 263.625 78.991C263.494 79.745 263.428 80.5813 263.428 81.5C263.428 82.4187 263.494 83.2507 263.625 83.996C263.756 84.7413 263.914 85.3437 264.099 85.803C264.283 86.2623 264.472 86.635 264.665 86.921C264.857 87.207 265.019 87.4367 265.15 87.61C265.281 87.7833 265.347 87.8743 265.347 87.883C265.347 87.961 265.289 88 265.173 88H265.139H264.988L264.665 87.688C263.941 86.9513 263.413 86.0327 263.082 84.932C262.751 83.8313 262.585 82.6873 262.585 81.5Z" fill="black"/>
<path d="M266.595 80.993C266.649 80.629 266.857 80.2087 267.219 79.732C267.581 79.2553 268.027 79.0127 268.559 79.004C268.829 79.004 269.075 79.082 269.298 79.238C269.522 79.394 269.687 79.589 269.795 79.823C270.119 79.277 270.508 79.004 270.962 79.004C271.247 79.004 271.494 79.0993 271.702 79.29C271.91 79.4807 272.018 79.7363 272.025 80.057C272.025 80.3083 271.971 80.512 271.864 80.668C271.756 80.824 271.652 80.9193 271.552 80.954C271.451 80.9887 271.363 81.006 271.286 81.006C271.139 81.006 271.02 80.9583 270.928 80.863C270.835 80.7677 270.789 80.642 270.789 80.486C270.789 80.0873 270.982 79.8143 271.367 79.667C271.282 79.5543 271.128 79.498 270.904 79.498C270.804 79.498 270.731 79.5067 270.685 79.524C270.392 79.6627 270.177 79.9487 270.038 80.382C269.576 82.2973 269.345 83.4153 269.345 83.736C269.345 83.9787 269.406 84.152 269.529 84.256C269.653 84.36 269.788 84.412 269.934 84.412C270.219 84.412 270.5 84.269 270.777 83.983C271.055 83.697 271.243 83.346 271.344 82.93C271.367 82.8433 271.39 82.7957 271.413 82.787C271.436 82.7783 271.498 82.7697 271.598 82.761H271.644C271.76 82.761 271.817 82.7957 271.817 82.865C271.817 82.8737 271.81 82.9213 271.794 83.008C271.671 83.502 271.432 83.9397 271.078 84.321C270.723 84.7023 270.311 84.893 269.841 84.893C269.302 84.893 268.894 84.62 268.617 84.074C268.301 84.6113 267.939 84.88 267.531 84.88H267.461C267.084 84.88 266.814 84.7673 266.652 84.542C266.491 84.3167 266.406 84.0783 266.398 83.827C266.398 83.5497 266.471 83.3243 266.618 83.151C266.764 82.9777 266.937 82.891 267.138 82.891C267.469 82.891 267.635 83.073 267.635 83.437C267.635 83.6103 267.588 83.762 267.496 83.892C267.403 84.022 267.315 84.1087 267.23 84.152C267.145 84.1953 267.095 84.217 267.08 84.217L267.045 84.23C267.045 84.2387 267.068 84.256 267.115 84.282C267.161 84.308 267.222 84.3383 267.299 84.373C267.376 84.4077 267.45 84.4207 267.519 84.412C267.796 84.412 268.035 84.217 268.235 83.827C268.305 83.6883 268.393 83.3937 268.501 82.943C268.609 82.4923 268.717 82.0243 268.825 81.539C268.933 81.0537 268.994 80.7677 269.01 80.681C269.048 80.447 269.067 80.278 269.067 80.174C269.067 79.9313 269.01 79.758 268.894 79.654C268.778 79.55 268.647 79.498 268.501 79.498C268.193 79.498 267.904 79.6367 267.635 79.914C267.365 80.1913 267.176 80.5467 267.068 80.98C267.053 81.058 267.034 81.1013 267.011 81.11C266.987 81.1187 266.926 81.1273 266.826 81.136H266.664C266.618 81.084 266.595 81.0363 266.595 80.993Z" fill="black"/>
<path d="M273.296 75.013L273.343 75C273.381 75 273.42 75 273.458 75H273.597L273.92 75.312C274.644 76.0487 275.172 76.9673 275.503 78.068C275.834 79.1687 276 80.3127 276 81.5C276 82.0893 275.962 82.657 275.885 83.203C275.808 83.749 275.719 84.2127 275.619 84.594C275.519 84.9753 275.376 85.3567 275.191 85.738C275.006 86.1193 274.86 86.4097 274.752 86.609C274.644 86.8083 274.486 87.0293 274.278 87.272C274.07 87.5147 273.947 87.6577 273.909 87.701C273.87 87.7443 273.782 87.8267 273.643 87.948C273.62 87.974 273.604 87.9913 273.597 88H273.458C273.396 88 273.354 88 273.331 88C273.308 88 273.289 87.987 273.273 87.961C273.258 87.935 273.246 87.896 273.239 87.844C273.246 87.8353 273.289 87.779 273.366 87.675C274.56 86.2797 275.157 84.2213 275.157 81.5C275.157 78.7787 274.56 76.7203 273.366 75.325C273.289 75.221 273.246 75.1647 273.239 75.156C273.239 75.0867 273.258 75.039 273.296 75.013Z" fill="black"/>
<path d="M293.235 81.5691C293.299 81.1554 293.547 80.6778 293.979 80.1362C294.412 79.5945 294.945 79.3188 295.58 79.3089C295.902 79.3089 296.196 79.3976 296.463 79.5748C296.729 79.7521 296.927 79.9737 297.056 80.2396C297.442 79.6192 297.907 79.3089 298.449 79.3089C298.79 79.3089 299.084 79.4173 299.332 79.6339C299.58 79.8506 299.709 80.1411 299.718 80.5055C299.718 80.7911 299.654 81.0225 299.525 81.1998C299.397 81.377 299.272 81.4854 299.153 81.5247C299.033 81.5641 298.927 81.5838 298.835 81.5838C298.661 81.5838 298.518 81.5297 298.408 81.4213C298.297 81.313 298.242 81.1702 298.242 80.9929C298.242 80.5399 298.472 80.2297 298.932 80.0623C298.831 79.9343 298.647 79.8703 298.38 79.8703C298.261 79.8703 298.173 79.8801 298.118 79.8998C297.769 80.0574 297.511 80.3824 297.346 80.8748C296.794 83.0512 296.518 84.3216 296.518 84.686C296.518 84.9617 296.591 85.1587 296.739 85.2768C296.886 85.395 297.047 85.4541 297.221 85.4541C297.562 85.4541 297.897 85.2916 298.228 84.9666C298.56 84.6416 298.785 84.2428 298.904 83.7701C298.932 83.6716 298.96 83.6174 298.987 83.6076C299.015 83.5978 299.088 83.5879 299.208 83.5781H299.263C299.401 83.5781 299.47 83.6174 299.47 83.6962C299.47 83.7061 299.461 83.7602 299.442 83.8587C299.295 84.4201 299.01 84.9174 298.587 85.3507C298.164 85.784 297.672 86.0007 297.111 86.0007C296.467 86.0007 295.98 85.6905 295.649 85.07C295.272 85.6806 294.839 85.9859 294.352 85.9859H294.269C293.819 85.9859 293.497 85.8579 293.304 85.6018C293.11 85.3458 293.009 85.075 293 84.7894C293 84.4742 293.087 84.2182 293.262 84.0212C293.437 83.8243 293.644 83.7258 293.883 83.7258C294.278 83.7258 294.476 83.9326 294.476 84.3462C294.476 84.5432 294.421 84.7155 294.311 84.8632C294.2 85.0109 294.094 85.1094 293.993 85.1587C293.892 85.2079 293.832 85.2325 293.814 85.2325L293.773 85.2473C293.773 85.2571 293.8 85.2768 293.855 85.3064C293.911 85.3359 293.984 85.3704 294.076 85.4098C294.168 85.4492 294.255 85.464 294.338 85.4541C294.669 85.4541 294.954 85.2325 295.193 84.7894C295.276 84.6318 295.382 84.297 295.511 83.7849C295.64 83.2728 295.768 82.741 295.897 82.1895C296.026 81.638 296.099 81.313 296.118 81.2145C296.164 80.9486 296.187 80.7566 296.187 80.6384C296.187 80.3627 296.118 80.1657 295.98 80.0475C295.842 79.9294 295.686 79.8703 295.511 79.8703C295.143 79.8703 294.798 80.0278 294.476 80.343C294.154 80.6581 293.929 81.0619 293.8 81.5543C293.782 81.6429 293.759 81.6922 293.731 81.702C293.704 81.7119 293.63 81.7217 293.51 81.7316H293.317C293.262 81.6725 293.235 81.6183 293.235 81.5691Z" fill="black"/>
<path d="M305.013 80.7123C305.013 80.5843 305.077 80.4858 305.206 80.4168H313.994C314.132 80.4956 314.201 80.5941 314.201 80.7123C314.201 80.8206 314.136 80.9142 314.008 80.9929L309.621 81.0077H305.234C305.087 80.9585 305.013 80.86 305.013 80.7123ZM305.013 83.5781C305.013 83.4303 305.087 83.3319 305.234 83.2826H314.008C314.136 83.3811 314.201 83.4796 314.201 83.5781C314.201 83.7061 314.132 83.8046 313.994 83.8735H305.206C305.077 83.8046 305.013 83.7061 305.013 83.5781Z" fill="black"/>
<path d="M320.31 79.501C320.061 79.501 319.863 79.4123 319.716 79.2351C319.569 79.0578 319.496 78.8412 319.496 78.5851C319.496 77.8859 319.739 77.2802 320.227 76.7681C320.714 76.2561 321.321 76 322.048 76C322.885 76 323.584 76.2757 324.145 76.8272C324.706 77.3787 324.991 78.0927 325 78.9692C325 79.3926 324.908 79.7964 324.724 80.1805C324.54 80.5646 324.319 80.8994 324.062 81.185C323.804 81.4706 323.437 81.835 322.958 82.2781C322.627 82.5834 322.167 83.0364 321.579 83.6371L320.765 84.4644L321.813 84.4792C323.257 84.4792 324.025 84.4545 324.117 84.4053C324.181 84.3856 324.292 83.9474 324.448 83.0906V83.0463H325V83.0906C324.991 83.1201 324.931 83.5682 324.821 84.4348C324.71 85.3015 324.641 85.7545 324.614 85.7939V85.8382H319.496V85.5575V85.3802C319.496 85.3113 319.523 85.2375 319.578 85.1587C319.634 85.0799 319.772 84.9075 319.992 84.6416C320.259 84.3265 320.489 84.0508 320.682 83.8144C320.765 83.7159 320.921 83.5337 321.151 83.2678C321.381 83.0019 321.537 82.8198 321.62 82.7213C321.703 82.6228 321.836 82.4603 322.02 82.2338C322.204 82.0073 322.333 81.8399 322.406 81.7316C322.48 81.6232 322.586 81.4755 322.724 81.2884C322.862 81.1013 322.958 80.9437 323.013 80.8157C323.069 80.6877 323.138 80.5449 323.22 80.3873C323.303 80.2297 323.363 80.0722 323.4 79.9146C323.437 79.757 323.469 79.6093 323.496 79.4714C323.524 79.3336 323.538 79.1711 323.538 78.984C323.538 78.3635 323.381 77.8268 323.069 77.3738C322.756 76.9208 322.31 76.6943 321.73 76.6943C321.427 76.6943 321.16 76.778 320.93 76.9454C320.7 77.1128 320.539 77.2753 320.447 77.4329C320.356 77.5905 320.31 77.684 320.31 77.7136C320.31 77.7234 320.333 77.7283 320.379 77.7283C320.544 77.7283 320.714 77.7973 320.889 77.9351C321.064 78.073 321.151 78.2995 321.151 78.6147C321.151 78.8609 321.077 79.0677 320.93 79.2351C320.783 79.4025 320.576 79.4911 320.31 79.501Z" fill="black"/>
</svg>
