<svg width="377" height="301" viewBox="0 0 377 301" fill="none" xmlns="http://www.w3.org/2000/svg">
<path d="M100.903 287V286.233L103.784 283.08C104.122 282.71 104.401 282.389 104.619 282.116C104.838 281.841 105 281.582 105.105 281.341C105.213 281.097 105.267 280.841 105.267 280.574C105.267 280.267 105.193 280.001 105.045 279.777C104.901 279.553 104.702 279.379 104.449 279.257C104.196 279.135 103.912 279.074 103.597 279.074C103.261 279.074 102.969 279.143 102.719 279.283C102.472 279.419 102.28 279.611 102.143 279.858C102.01 280.105 101.943 280.395 101.943 280.727H100.938C100.938 280.216 101.055 279.767 101.291 279.381C101.527 278.994 101.848 278.693 102.254 278.477C102.663 278.261 103.122 278.153 103.631 278.153C104.142 278.153 104.595 278.261 104.99 278.477C105.385 278.693 105.695 278.984 105.919 279.351C106.143 279.717 106.256 280.125 106.256 280.574C106.256 280.895 106.197 281.209 106.081 281.516C105.967 281.82 105.768 282.159 105.484 282.534C105.203 282.906 104.812 283.361 104.312 283.898L102.352 285.994V286.062H106.409V287H100.903Z" fill="black"/>
<rect x="32" y="12" width="273" height="245" fill="#30F210"/>
<path d="M31.5 257.5C163.5 61.9 268.833 118 305 170.5" stroke="black"/>
<rect x="32" y="2" width="273" height="118" fill="#76E6FF"/>
<path d="M121 117L32 257L32 117H121Z" fill="#76E6FF"/>
<path d="M147 120L94 177L49 230L118.082 120H147Z" fill="#76E6FF"/>
<path d="M192 117L183.666 123.122L163.5 131L153.5 135L143 141L128.5 150.5L115 160.5L98 176L80.5 193.5L94 177L148.245 117H192Z" fill="#76E6FF"/>
<path d="M207.262 120.118L200.5 121L196 121.5L191.336 122.186L184.807 123.461L162 131L179.91 124.539L187.5 120L207.262 120.118Z" fill="#76E6FF"/>
<line x1="31.6655" y1="234.628" x2="291.665" y2="0.628352" stroke="#FF0000"/>
<path d="M304.947 119L304.947 169L294.5 156L281 143.5L266.5 134L252 127L245.5 125L240 123.5L221.5 120L304.947 119Z" fill="#76E6FF"/>
<line x1="105" y1="255.003" x2="105" y2="169.997" stroke="black" stroke-dasharray="2 2"/>
<path d="M61.2345 87.5691C61.2989 87.1554 61.5472 86.6778 61.9795 86.1362C62.4117 85.5945 62.9452 85.3188 63.5798 85.3089C63.9016 85.3089 64.196 85.3976 64.4627 85.5748C64.7294 85.7521 64.9271 85.9737 65.0559 86.2396C65.4421 85.6192 65.9066 85.3089 66.4492 85.3089C66.7895 85.3089 67.0838 85.4173 67.3321 85.6339C67.5804 85.8506 67.7092 86.1411 67.7184 86.5055C67.7184 86.7911 67.654 87.0225 67.5253 87.1998C67.3965 87.377 67.2723 87.4854 67.1528 87.5247C67.0332 87.5641 66.9275 87.5838 66.8355 87.5838C66.6607 87.5838 66.5182 87.5297 66.4078 87.4213C66.2975 87.313 66.2423 87.1702 66.2423 86.9929C66.2423 86.5399 66.4722 86.2297 66.9321 86.0623C66.8309 85.9343 66.647 85.8703 66.3802 85.8703C66.2607 85.8703 66.1733 85.8801 66.1181 85.8998C65.7686 86.0574 65.5111 86.3824 65.3456 86.8748C64.7938 89.0512 64.5178 90.3216 64.5178 90.686C64.5178 90.9617 64.5914 91.1587 64.7386 91.2768C64.8857 91.395 65.0467 91.4541 65.2214 91.4541C65.5617 91.4541 65.8974 91.2916 66.2285 90.9666C66.5596 90.6416 66.7849 90.2428 66.9045 89.7701C66.9321 89.6716 66.9596 89.6174 66.9872 89.6076C67.0148 89.5978 67.0884 89.5879 67.208 89.5781H67.2631C67.4011 89.5781 67.4701 89.6174 67.4701 89.6962C67.4701 89.7061 67.4609 89.7602 67.4425 89.8587C67.2953 90.4201 67.0102 90.9174 66.5872 91.3507C66.1641 91.784 65.6721 92.0007 65.1111 92.0007C64.4673 92.0007 63.9798 91.6905 63.6487 91.07C63.2717 91.6806 62.8394 91.9859 62.352 91.9859H62.2692C61.8185 91.9859 61.4966 91.8579 61.3035 91.6018C61.1104 91.3458 61.0092 91.075 61 90.7894C61 90.4742 61.0874 90.2182 61.2621 90.0212C61.4369 89.8243 61.6438 89.7258 61.8829 89.7258C62.2784 89.7258 62.4761 89.9326 62.4761 90.3462C62.4761 90.5432 62.4209 90.7155 62.3106 90.8632C62.2002 91.0109 62.0944 91.1094 61.9933 91.1587C61.8921 91.2079 61.8323 91.2325 61.8139 91.2325L61.7725 91.2473C61.7725 91.2571 61.8001 91.2768 61.8553 91.3064C61.9105 91.3359 61.9841 91.3704 62.076 91.4098C62.168 91.4492 62.2554 91.464 62.3382 91.4541C62.6693 91.4541 62.9544 91.2325 63.1935 90.7894C63.2763 90.6318 63.382 90.297 63.5108 89.7849C63.6395 89.2728 63.7683 88.741 63.8971 88.1895C64.0258 87.638 64.0994 87.313 64.1178 87.2145C64.1638 86.9486 64.1868 86.7566 64.1868 86.6384C64.1868 86.3627 64.1178 86.1657 63.9798 86.0475C63.8419 85.9294 63.6855 85.8703 63.5108 85.8703C63.1429 85.8703 62.798 86.0278 62.4761 86.343C62.1542 86.6581 61.9289 87.0619 61.8001 87.5543C61.7817 87.6429 61.7588 87.6922 61.7312 87.702C61.7036 87.7119 61.63 87.7217 61.5104 87.7316H61.3173C61.2621 87.6725 61.2345 87.6183 61.2345 87.5691Z" fill="black"/>
<path d="M73.0131 86.7123C73.0131 86.5843 73.0774 86.4858 73.2062 86.4168H81.9939C82.1319 86.4956 82.2009 86.5941 82.2009 86.7123C82.2009 86.8206 82.1365 86.9142 82.0077 86.993L77.6208 87.0077H73.2338C73.0866 86.9585 73.0131 86.86 73.0131 86.7123ZM73.0131 89.5781C73.0131 89.4303 73.0866 89.3319 73.2338 89.2826H82.0077C82.1365 89.3811 82.2009 89.4796 82.2009 89.5781C82.2009 89.7061 82.1319 89.8046 81.9939 89.8735H73.2062C73.0774 89.8046 73.0131 89.7061 73.0131 89.5781Z" fill="black"/>
<path d="M88.3095 85.501C88.0612 85.501 87.8634 85.4124 87.7163 85.2351C87.5691 85.0578 87.4955 84.8412 87.4955 84.5851C87.4955 83.8859 87.7393 83.2803 88.2267 82.7682C88.7141 82.2561 89.3211 82 90.0477 82C90.8846 82 91.5836 82.2758 92.1446 82.8273C92.7056 83.3787 92.9907 84.0927 92.9999 84.9692C92.9999 85.3927 92.908 85.7964 92.724 86.1805C92.5401 86.5646 92.3194 86.8994 92.0618 87.185C91.8043 87.4706 91.4365 87.835 90.9582 88.2781C90.6271 88.5834 90.1673 89.0364 89.5787 89.6372L88.7647 90.4644L89.8132 90.4792C91.2571 90.4792 92.0251 90.4545 92.117 90.4053C92.1814 90.3856 92.2918 89.9474 92.4481 89.0906V89.0463H92.9999V89.0906C92.9907 89.1201 92.931 89.5682 92.8206 90.4349C92.7102 91.3015 92.6413 91.7545 92.6137 91.7939V91.8382H87.4955V91.5575V91.3803C87.4955 91.3113 87.5231 91.2375 87.5783 91.1587C87.6335 91.0799 87.7715 90.9076 87.9922 90.6417C88.2589 90.3265 88.4888 90.0508 88.682 89.8144C88.7647 89.7159 88.9211 89.5338 89.151 89.2679C89.3809 89.002 89.5373 88.8198 89.62 88.7213C89.7028 88.6228 89.8362 88.4603 90.0201 88.2338C90.2041 88.0073 90.3328 87.8399 90.4064 87.7316C90.48 87.6232 90.5857 87.4755 90.7237 87.2884C90.8616 87.1013 90.9582 86.9437 91.0134 86.8157C91.0686 86.6877 91.1376 86.5449 91.2203 86.3873C91.3031 86.2297 91.3629 86.0722 91.3997 85.9146C91.4365 85.757 91.4686 85.6093 91.4962 85.4714C91.5238 85.3336 91.5376 85.1711 91.5376 84.984C91.5376 84.3635 91.3813 83.8268 91.0686 83.3738C90.7559 82.9208 90.3098 82.6943 89.7304 82.6943C89.4269 82.6943 89.1602 82.778 88.9303 82.9454C88.7003 83.1128 88.5394 83.2753 88.4474 83.4329C88.3555 83.5905 88.3095 83.684 88.3095 83.7136C88.3095 83.7234 88.3325 83.7283 88.3785 83.7283C88.544 83.7283 88.7141 83.7973 88.8889 83.9352C89.0636 84.073 89.151 84.2995 89.151 84.6147C89.151 84.8609 89.0774 85.0677 88.9303 85.2351C88.7831 85.4025 88.5762 85.4911 88.3095 85.501Z" fill="black"/>
<path d="M100.585 83.9C101.893 84.128 104.329 84.08 105.517 83.9V84.872C104.233 85.016 101.905 85.016 100.597 84.872L100.585 83.9ZM101.053 88.796C100.945 89.228 100.885 89.564 100.885 89.888C100.885 90.44 101.269 90.98 102.913 90.98C103.981 90.98 104.917 90.884 105.877 90.656L105.901 91.664C105.157 91.82 104.149 91.916 102.901 91.916C100.897 91.916 99.997 91.244 99.997 90.116C99.997 89.72 100.057 89.288 100.189 88.712L101.053 88.796ZM98.305 82.976C98.233 83.18 98.137 83.564 98.089 83.78C97.861 84.896 97.489 87.032 97.489 88.388C97.489 88.964 97.525 89.468 97.597 90.056C97.801 89.516 98.077 88.796 98.281 88.304L98.785 88.7C98.485 89.552 98.041 90.812 97.933 91.388C97.897 91.556 97.873 91.784 97.873 91.928C97.885 92.048 97.897 92.216 97.909 92.348L97.057 92.408C96.817 91.556 96.613 90.176 96.613 88.544C96.613 86.78 97.009 84.728 97.153 83.732C97.189 83.456 97.225 83.156 97.237 82.892L98.305 82.976ZM112.045 82.424C112.009 82.64 111.985 82.964 111.973 83.252C111.937 83.96 111.877 85.796 111.877 87.044C111.877 88.292 111.937 90.164 111.937 90.92C111.937 92.024 111.529 92.384 110.869 92.384C109.933 92.384 108.373 91.472 108.373 90.392C108.373 89.336 109.801 88.22 111.289 87.656C112.357 87.236 113.557 87.02 114.505 87.02C116.269 87.02 117.529 87.968 117.529 89.408C117.529 90.86 116.617 91.784 114.961 92.168C114.433 92.288 113.893 92.312 113.473 92.336L113.137 91.376C113.593 91.376 114.097 91.388 114.553 91.292C115.597 91.088 116.557 90.524 116.557 89.408C116.557 88.388 115.633 87.848 114.505 87.848C113.425 87.848 112.441 88.076 111.421 88.484C110.245 88.94 109.321 89.744 109.321 90.356C109.321 90.896 110.161 91.376 110.629 91.376C110.905 91.376 111.061 91.184 111.061 90.788C111.061 90.092 111.001 88.424 111.001 87.092C111.001 85.712 111.049 83.756 111.049 83.264C111.049 83.036 111.025 82.616 110.989 82.424H112.045ZM115.777 83.756C116.629 84.2 117.937 85.016 118.513 85.496L118.033 86.264C117.445 85.712 116.101 84.884 115.333 84.476L115.777 83.756ZM108.577 84.572C109.237 84.656 109.669 84.668 110.101 84.668C111.289 84.668 113.197 84.416 114.385 84.056L114.409 84.992C113.173 85.292 111.205 85.556 110.125 85.556C109.453 85.556 108.997 85.532 108.601 85.496L108.577 84.572ZM128.257 82.652C128.221 82.844 128.209 83.084 128.209 83.36C128.197 83.804 128.245 85.832 128.245 86.504C128.245 89.252 128.245 91.22 125.701 92.708L124.825 92.036C125.197 91.88 125.689 91.58 125.989 91.28C127.273 90.164 127.333 88.796 127.333 86.492C127.333 85.724 127.285 83.864 127.249 83.36C127.225 83.096 127.177 82.832 127.129 82.652H128.257ZM123.865 85.136C124.393 85.22 125.149 85.268 125.809 85.268C127.285 85.268 128.989 85.172 130.189 84.896V85.868C129.025 86.06 127.345 86.168 125.821 86.168C125.233 86.168 124.393 86.132 123.865 86.084V85.136ZM122.185 82.832C122.113 83.048 122.029 83.384 121.981 83.612C121.597 85.352 121.177 87.98 121.645 89.948C121.801 89.432 122.065 88.7 122.281 88.112L122.797 88.424C122.509 89.252 122.149 90.476 122.017 91.076C121.981 91.244 121.957 91.472 121.969 91.616C121.969 91.736 121.993 91.892 122.005 92.024L121.177 92.12C120.937 91.376 120.553 89.816 120.553 88.316C120.553 86.36 120.865 84.524 121.009 83.516C121.045 83.252 121.057 82.928 121.069 82.712L122.185 82.832ZM133.981 83.168C134.245 83.192 134.581 83.204 134.821 83.204C135.457 83.204 138.301 83.12 138.937 83.06C139.297 83.024 139.465 83 139.597 82.952L140.149 83.66C139.933 83.804 139.693 83.96 139.465 84.14C138.877 84.596 137.245 86 136.309 86.768C136.861 86.588 137.437 86.528 137.977 86.528C139.969 86.528 141.397 87.716 141.397 89.336C141.397 91.268 139.801 92.528 137.257 92.528C135.625 92.528 134.629 91.82 134.629 90.812C134.629 89.996 135.373 89.252 136.477 89.252C138.073 89.252 138.877 90.38 138.961 91.592L138.097 91.736C138.025 90.716 137.437 89.984 136.477 89.984C135.925 89.984 135.505 90.32 135.505 90.74C135.505 91.328 136.165 91.676 137.113 91.676C139.153 91.676 140.437 90.836 140.437 89.336C140.437 88.148 139.309 87.272 137.737 87.272C135.745 87.272 134.665 88.112 133.153 89.66L132.457 88.964C133.453 88.148 135.001 86.852 135.685 86.264C136.357 85.712 137.869 84.452 138.469 83.912C137.833 83.948 135.433 84.044 134.809 84.08C134.533 84.104 134.269 84.116 134.005 84.152L133.981 83.168ZM63.472 97.172H64.42V106.46H63.472V97.172ZM59.26 99.788H60.172V107.816H59.26V99.788ZM67.852 99.776H68.776V107.768H67.852V99.776ZM59.704 105.92H68.26V106.844H59.704V105.92ZM76.756 98.816C76.6 100.064 76.36 101.468 75.988 102.752C75.256 105.212 74.296 106.484 73.192 106.484C72.112 106.484 71.044 105.26 71.044 103.268C71.044 100.664 73.36 98.396 76.3 98.396C79.108 98.396 80.896 100.376 80.896 102.812C80.896 105.32 79.24 107 76.384 107.372L75.832 106.484C76.216 106.448 76.576 106.4 76.864 106.34C78.4 105.992 79.912 104.84 79.912 102.764C79.912 100.844 78.58 99.26 76.276 99.26C73.636 99.26 71.992 101.432 71.992 103.196C71.992 104.708 72.676 105.38 73.216 105.38C73.78 105.38 74.428 104.564 75.04 102.536C75.388 101.396 75.64 100.04 75.76 98.792L76.756 98.816ZM87.592 99.788L88.204 100.376C87.592 101.012 86.788 101.732 86.188 102.176L85.72 101.696C86.296 101.216 87.136 100.376 87.592 99.788ZM85.516 98.156H86.332V104.888C86.332 105.236 86.356 105.296 86.572 105.296C86.668 105.296 87.1 105.296 87.22 105.296C87.448 105.296 87.484 105.008 87.508 103.568C87.688 103.724 88.012 103.868 88.24 103.916C88.18 105.572 87.988 106.076 87.292 106.076C87.136 106.076 86.596 106.076 86.452 106.076C85.708 106.076 85.516 105.812 85.516 104.888V98.156ZM84.592 96.992L85.408 97.22C84.772 99.284 83.776 101.396 82.648 102.788C82.576 102.572 82.348 102.104 82.192 101.876C83.188 100.664 84.064 98.84 84.592 96.992ZM83.752 99.932L84.556 99.116L84.568 99.14V107.996H83.752V99.932ZM87.748 97.496H93.52V98.276H87.748V97.496ZM89.104 101.864V103.052H92.284V101.864H89.104ZM89.104 103.736V104.936H92.284V103.736H89.104ZM89.104 100.004V101.18H92.284V100.004H89.104ZM88.3 99.296H93.112V105.644H88.3V99.296ZM90.304 97.88L91.264 98.012C91.036 98.66 90.784 99.368 90.556 99.848L89.812 99.704C89.98 99.188 90.208 98.42 90.304 97.88ZM89.356 105.908L90.136 106.364C89.512 107 88.468 107.648 87.58 108.008C87.436 107.84 87.172 107.576 86.968 107.42C87.868 107.072 88.864 106.448 89.356 105.908ZM91.12 106.412L91.804 105.968C92.452 106.4 93.292 107.048 93.7 107.504L93.004 107.996C92.608 107.552 91.78 106.88 91.12 106.412ZM96.148 98.78C97.816 98.984 99.388 99.008 100.612 98.888C101.596 98.804 102.58 98.6 103.444 98.312L103.576 99.188C102.796 99.416 101.776 99.62 100.816 99.704C99.604 99.824 97.924 99.824 96.208 99.656L96.148 98.78ZM95.908 101.24C97.96 101.456 100 101.42 101.404 101.252C102.544 101.132 103.516 100.892 104.152 100.7L104.308 101.588C103.648 101.768 102.736 101.948 101.728 102.068C100.252 102.26 98.032 102.296 95.968 102.14L95.908 101.24ZM100.012 98.624C99.916 98.276 99.808 97.904 99.676 97.556L100.696 97.424C100.816 98.432 101.188 99.644 101.488 100.496C101.812 101.432 102.34 102.584 102.964 103.508C103.096 103.7 103.24 103.868 103.42 104.024L102.916 104.756C102.244 104.588 101.128 104.468 100.3 104.384L100.372 103.652C101.02 103.712 101.8 103.796 102.172 103.844C101.512 102.812 101.008 101.66 100.66 100.688C100.36 99.86 100.18 99.224 100.012 98.624ZM97.66 103.832C97.372 104.24 97.156 104.648 97.156 105.188C97.156 106.172 98.032 106.676 99.916 106.676C101.032 106.676 101.908 106.592 102.784 106.424L102.736 107.372C101.896 107.516 100.96 107.588 99.928 107.588C97.588 107.588 96.268 106.892 96.244 105.344C96.244 104.66 96.448 104.156 96.724 103.628L97.66 103.832Z" fill="black"/>
<circle cx="98.5" cy="141.5" r="12.5" fill="#FAFF00"/>
<rect x="90" y="146" width="17" height="21" fill="#FAFF00"/>
<path d="M344.064 272.058C344.648 271.47 344.645 270.52 344.058 269.936L334.484 260.418C333.896 259.834 332.946 259.837 332.362 260.424C331.778 261.012 331.781 261.962 332.369 262.546L340.879 271.006L332.418 279.516C331.834 280.104 331.837 281.053 332.424 281.638C333.012 282.222 333.962 282.219 334.546 281.631L344.064 272.058ZM1.00439 273.5L343.004 272.5L342.996 269.5L0.995614 270.5L1.00439 273.5Z" fill="black"/>
<path d="M345.227 292.273L347.318 295.841L349.409 292.273H350.955L348.136 296.636L350.955 301H349.409L347.318 297.614L345.227 301H343.682L346.455 296.636L343.682 292.273H345.227Z" fill="black"/>
</svg>
