<svg width="377" height="301" viewBox="0 0 377 301" fill="none" xmlns="http://www.w3.org/2000/svg">
<path d="M100.903 287V286.233L103.784 283.08C104.122 282.71 104.401 282.389 104.619 282.116C104.838 281.841 105 281.582 105.105 281.341C105.213 281.097 105.267 280.841 105.267 280.574C105.267 280.267 105.193 280.001 105.045 279.777C104.901 279.553 104.702 279.379 104.449 279.257C104.196 279.135 103.912 279.074 103.597 279.074C103.261 279.074 102.969 279.143 102.719 279.283C102.472 279.419 102.28 279.611 102.143 279.858C102.01 280.105 101.943 280.395 101.943 280.727H100.938C100.938 280.216 101.055 279.767 101.291 279.381C101.527 278.994 101.848 278.693 102.254 278.477C102.663 278.261 103.122 278.153 103.631 278.153C104.142 278.153 104.595 278.261 104.99 278.477C105.385 278.693 105.695 278.984 105.919 279.351C106.143 279.717 106.256 280.125 106.256 280.574C106.256 280.895 106.197 281.209 106.081 281.516C105.967 281.82 105.768 282.159 105.484 282.534C105.203 282.906 104.812 283.361 104.312 283.898L102.352 285.994V286.062H106.409V287H100.903Z" fill="black"/>
<rect x="32" y="12" width="273" height="245" fill="#30F210"/>
<path d="M31.5 257.5C163.5 61.9 268.833 118 305 170.5" stroke="black"/>
<rect x="32" y="2" width="273" height="118" fill="#76E6FF"/>
<path d="M121 117L32 257L32 117H121Z" fill="#76E6FF"/>
<path d="M147 120L94 177L49 230L118.082 120H147Z" fill="#76E6FF"/>
<path d="M192 117L183.666 123.122L163.5 131L153.5 135L143 141L128.5 150.5L115 160.5L98 176L80.5 193.5L94 177L148.245 117H192Z" fill="#76E6FF"/>
<path d="M207.262 120.118L200.5 121L196 121.5L191.336 122.186L184.807 123.461L162 131L179.91 124.539L187.5 120L207.262 120.118Z" fill="#76E6FF"/>
<line x1="31.6655" y1="234.628" x2="291.665" y2="0.628352" stroke="#FF0000"/>
<path d="M304.947 119L304.947 169L294.5 156L281 143.5L266.5 134L252 127L245.5 125L240 123.5L221.5 120L304.947 119Z" fill="#76E6FF"/>
<line x1="105" y1="255.003" x2="105" y2="169.997" stroke="black" stroke-dasharray="2 2"/>
<circle cx="98.5" cy="141.5" r="12.5" fill="#FAFF00"/>
<rect x="90" y="146" width="17" height="21" fill="#FAFF00"/>
<path d="M344.064 272.058C344.648 271.47 344.645 270.52 344.058 269.936L334.484 260.418C333.896 259.834 332.946 259.837 332.362 260.424C331.778 261.012 331.781 261.962 332.369 262.546L340.879 271.006L332.418 279.516C331.834 280.104 331.837 281.053 332.424 281.638C333.012 282.222 333.962 282.219 334.546 281.631L344.064 272.058ZM1.00439 273.5L343.004 272.5L342.996 269.5L0.995614 270.5L1.00439 273.5Z" fill="black"/>
<path d="M345.227 292.273L347.318 295.841L349.409 292.273H350.955L348.136 296.636L350.955 301H349.409L347.318 297.614L345.227 301H343.682L346.455 296.636L343.682 292.273H345.227Z" fill="black"/>
<path d="M108.585 66.9C109.893 67.128 112.329 67.08 113.517 66.9V67.872C112.233 68.016 109.905 68.016 108.597 67.872L108.585 66.9ZM109.053 71.796C108.945 72.228 108.885 72.564 108.885 72.888C108.885 73.44 109.269 73.98 110.913 73.98C111.981 73.98 112.917 73.884 113.877 73.656L113.901 74.664C113.157 74.82 112.149 74.916 110.901 74.916C108.897 74.916 107.997 74.244 107.997 73.116C107.997 72.72 108.057 72.288 108.189 71.712L109.053 71.796ZM106.305 65.976C106.233 66.18 106.137 66.564 106.089 66.78C105.861 67.896 105.489 70.032 105.489 71.388C105.489 71.964 105.525 72.468 105.597 73.056C105.801 72.516 106.077 71.796 106.281 71.304L106.785 71.7C106.485 72.552 106.041 73.812 105.933 74.388C105.897 74.556 105.873 74.784 105.873 74.928C105.885 75.048 105.897 75.216 105.909 75.348L105.057 75.408C104.817 74.556 104.613 73.176 104.613 71.544C104.613 69.78 105.009 67.728 105.153 66.732C105.189 66.456 105.225 66.156 105.237 65.892L106.305 65.976ZM120.045 65.424C120.009 65.64 119.985 65.964 119.973 66.252C119.937 66.96 119.877 68.796 119.877 70.044C119.877 71.292 119.937 73.164 119.937 73.92C119.937 75.024 119.529 75.384 118.869 75.384C117.933 75.384 116.373 74.472 116.373 73.392C116.373 72.336 117.801 71.22 119.289 70.656C120.357 70.236 121.557 70.02 122.505 70.02C124.269 70.02 125.529 70.968 125.529 72.408C125.529 73.86 124.617 74.784 122.961 75.168C122.433 75.288 121.893 75.312 121.473 75.336L121.137 74.376C121.593 74.376 122.097 74.388 122.553 74.292C123.597 74.088 124.557 73.524 124.557 72.408C124.557 71.388 123.633 70.848 122.505 70.848C121.425 70.848 120.441 71.076 119.421 71.484C118.245 71.94 117.321 72.744 117.321 73.356C117.321 73.896 118.161 74.376 118.629 74.376C118.905 74.376 119.061 74.184 119.061 73.788C119.061 73.092 119.001 71.424 119.001 70.092C119.001 68.712 119.049 66.756 119.049 66.264C119.049 66.036 119.025 65.616 118.989 65.424H120.045ZM123.777 66.756C124.629 67.2 125.937 68.016 126.513 68.496L126.033 69.264C125.445 68.712 124.101 67.884 123.333 67.476L123.777 66.756ZM116.577 67.572C117.237 67.656 117.669 67.668 118.101 67.668C119.289 67.668 121.197 67.416 122.385 67.056L122.409 67.992C121.173 68.292 119.205 68.556 118.125 68.556C117.453 68.556 116.997 68.532 116.601 68.496L116.577 67.572ZM136.257 65.652C136.221 65.844 136.209 66.084 136.209 66.36C136.197 66.804 136.245 68.832 136.245 69.504C136.245 72.252 136.245 74.22 133.701 75.708L132.825 75.036C133.197 74.88 133.689 74.58 133.989 74.28C135.273 73.164 135.333 71.796 135.333 69.492C135.333 68.724 135.285 66.864 135.249 66.36C135.225 66.096 135.177 65.832 135.129 65.652H136.257ZM131.865 68.136C132.393 68.22 133.149 68.268 133.809 68.268C135.285 68.268 136.989 68.172 138.189 67.896V68.868C137.025 69.06 135.345 69.168 133.821 69.168C133.233 69.168 132.393 69.132 131.865 69.084V68.136ZM130.185 65.832C130.113 66.048 130.029 66.384 129.981 66.612C129.597 68.352 129.177 70.98 129.645 72.948C129.801 72.432 130.065 71.7 130.281 71.112L130.797 71.424C130.509 72.252 130.149 73.476 130.017 74.076C129.981 74.244 129.957 74.472 129.969 74.616C129.969 74.736 129.993 74.892 130.005 75.024L129.177 75.12C128.937 74.376 128.553 72.816 128.553 71.316C128.553 69.36 128.865 67.524 129.009 66.516C129.045 66.252 129.057 65.928 129.069 65.712L130.185 65.832ZM141.981 66.168C142.245 66.192 142.581 66.204 142.821 66.204C143.457 66.204 146.301 66.12 146.937 66.06C147.297 66.024 147.465 66 147.597 65.952L148.149 66.66C147.933 66.804 147.693 66.96 147.465 67.14C146.877 67.596 145.245 69 144.309 69.768C144.861 69.588 145.437 69.528 145.977 69.528C147.969 69.528 149.397 70.716 149.397 72.336C149.397 74.268 147.801 75.528 145.257 75.528C143.625 75.528 142.629 74.82 142.629 73.812C142.629 72.996 143.373 72.252 144.477 72.252C146.073 72.252 146.877 73.38 146.961 74.592L146.097 74.736C146.025 73.716 145.437 72.984 144.477 72.984C143.925 72.984 143.505 73.32 143.505 73.74C143.505 74.328 144.165 74.676 145.113 74.676C147.153 74.676 148.437 73.836 148.437 72.336C148.437 71.148 147.309 70.272 145.737 70.272C143.745 70.272 142.665 71.112 141.153 72.66L140.457 71.964C141.453 71.148 143.001 69.852 143.685 69.264C144.357 68.712 145.869 67.452 146.469 66.912C145.833 66.948 143.433 67.044 142.809 67.08C142.533 67.104 142.269 67.116 142.005 67.152L141.981 66.168ZM71.472 80.172H72.42V89.46H71.472V80.172ZM67.26 82.788H68.172V90.816H67.26V82.788ZM75.852 82.776H76.776V90.768H75.852V82.776ZM67.704 88.92H76.26V89.844H67.704V88.92ZM84.756 81.816C84.6 83.064 84.36 84.468 83.988 85.752C83.256 88.212 82.296 89.484 81.192 89.484C80.112 89.484 79.044 88.26 79.044 86.268C79.044 83.664 81.36 81.396 84.3 81.396C87.108 81.396 88.896 83.376 88.896 85.812C88.896 88.32 87.24 90 84.384 90.372L83.832 89.484C84.216 89.448 84.576 89.4 84.864 89.34C86.4 88.992 87.912 87.84 87.912 85.764C87.912 83.844 86.58 82.26 84.276 82.26C81.636 82.26 79.992 84.432 79.992 86.196C79.992 87.708 80.676 88.38 81.216 88.38C81.78 88.38 82.428 87.564 83.04 85.536C83.388 84.396 83.64 83.04 83.76 81.792L84.756 81.816ZM95.592 82.788L96.204 83.376C95.592 84.012 94.788 84.732 94.188 85.176L93.72 84.696C94.296 84.216 95.136 83.376 95.592 82.788ZM93.516 81.156H94.332V87.888C94.332 88.236 94.356 88.296 94.572 88.296C94.668 88.296 95.1 88.296 95.22 88.296C95.448 88.296 95.484 88.008 95.508 86.568C95.688 86.724 96.012 86.868 96.24 86.916C96.18 88.572 95.988 89.076 95.292 89.076C95.136 89.076 94.596 89.076 94.452 89.076C93.708 89.076 93.516 88.812 93.516 87.888V81.156ZM92.592 79.992L93.408 80.22C92.772 82.284 91.776 84.396 90.648 85.788C90.576 85.572 90.348 85.104 90.192 84.876C91.188 83.664 92.064 81.84 92.592 79.992ZM91.752 82.932L92.556 82.116L92.568 82.14V90.996H91.752V82.932ZM95.748 80.496H101.52V81.276H95.748V80.496ZM97.104 84.864V86.052H100.284V84.864H97.104ZM97.104 86.736V87.936H100.284V86.736H97.104ZM97.104 83.004V84.18H100.284V83.004H97.104ZM96.3 82.296H101.112V88.644H96.3V82.296ZM98.304 80.88L99.264 81.012C99.036 81.66 98.784 82.368 98.556 82.848L97.812 82.704C97.98 82.188 98.208 81.42 98.304 80.88ZM97.356 88.908L98.136 89.364C97.512 90 96.468 90.648 95.58 91.008C95.436 90.84 95.172 90.576 94.968 90.42C95.868 90.072 96.864 89.448 97.356 88.908ZM99.12 89.412L99.804 88.968C100.452 89.4 101.292 90.048 101.7 90.504L101.004 90.996C100.608 90.552 99.78 89.88 99.12 89.412ZM104.148 81.78C105.816 81.984 107.388 82.008 108.612 81.888C109.596 81.804 110.58 81.6 111.444 81.312L111.576 82.188C110.796 82.416 109.776 82.62 108.816 82.704C107.604 82.824 105.924 82.824 104.208 82.656L104.148 81.78ZM103.908 84.24C105.96 84.456 108 84.42 109.404 84.252C110.544 84.132 111.516 83.892 112.152 83.7L112.308 84.588C111.648 84.768 110.736 84.948 109.728 85.068C108.252 85.26 106.032 85.296 103.968 85.14L103.908 84.24ZM108.012 81.624C107.916 81.276 107.808 80.904 107.676 80.556L108.696 80.424C108.816 81.432 109.188 82.644 109.488 83.496C109.812 84.432 110.34 85.584 110.964 86.508C111.096 86.7 111.24 86.868 111.42 87.024L110.916 87.756C110.244 87.588 109.128 87.468 108.3 87.384L108.372 86.652C109.02 86.712 109.8 86.796 110.172 86.844C109.512 85.812 109.008 84.66 108.66 83.688C108.36 82.86 108.18 82.224 108.012 81.624ZM105.66 86.832C105.372 87.24 105.156 87.648 105.156 88.188C105.156 89.172 106.032 89.676 107.916 89.676C109.032 89.676 109.908 89.592 110.784 89.424L110.736 90.372C109.896 90.516 108.96 90.588 107.928 90.588C105.588 90.588 104.268 89.892 104.244 88.344C104.244 87.66 104.448 87.156 104.724 86.628L105.66 86.832ZM123.756 82.848C123.492 83.004 123.192 83.172 122.832 83.352C122.028 83.772 120.36 84.564 119.184 85.332C118.068 86.064 117.396 86.856 117.396 87.756C117.396 88.752 118.356 89.376 120.252 89.376C121.548 89.376 123.156 89.208 124.092 88.968L124.08 90.048C123.18 90.204 121.788 90.336 120.288 90.336C118.032 90.336 116.4 89.664 116.4 87.864C116.4 86.568 117.276 85.548 118.692 84.612C119.916 83.796 121.596 82.992 122.376 82.548C122.724 82.344 122.988 82.188 123.24 81.984L123.756 82.848ZM117.684 80.664C118.236 82.2 118.98 83.7 119.532 84.672L118.716 85.164C118.104 84.18 117.384 82.56 116.736 81.072L117.684 80.664ZM128.964 82.656H135.072V83.448H128.964V82.656ZM129.576 84.708H130.416V89.4H129.576V84.708ZM130.032 84.708H134.424V88.524H130.032V87.744H133.584V85.464H130.032V84.708ZM127.044 80.544H136.632V81.408H127.92V90.984H127.044V80.544ZM136.08 80.544H136.968V89.82C136.968 90.384 136.824 90.66 136.452 90.804C136.092 90.96 135.492 90.984 134.448 90.972C134.412 90.732 134.268 90.336 134.124 90.096C134.88 90.12 135.588 90.12 135.792 90.108C136.008 90.096 136.08 90.024 136.08 89.82V80.544ZM145.248 81.72C145.548 82.164 146.112 83.064 146.388 83.64L145.68 83.952C145.38 83.316 144.96 82.572 144.564 82.02L145.248 81.72ZM146.796 81.108C147.108 81.528 147.684 82.428 147.972 82.992L147.288 83.328C146.964 82.692 146.52 81.96 146.124 81.42L146.796 81.108ZM141.924 80.736C141.864 81.144 141.828 81.552 141.804 81.948C141.756 83.304 141.66 86.148 141.66 87.936C141.66 89.256 142.488 89.712 143.628 89.712C145.824 89.712 147.072 88.488 147.936 87.24L148.608 88.056C147.792 89.184 146.244 90.696 143.604 90.696C141.876 90.696 140.688 89.988 140.688 88.02C140.688 86.244 140.808 83.208 140.808 81.948C140.808 81.504 140.784 81.084 140.7 80.736H141.924ZM66.624 96.996H77.364V97.86H66.624V96.996ZM70.548 99.84H75.348V100.704H70.548V99.84ZM75.024 99.84H75.948C75.948 99.84 75.936 100.14 75.912 100.272C75.672 103.728 75.432 105.06 74.964 105.54C74.688 105.828 74.388 105.912 73.932 105.948C73.512 105.972 72.72 105.948 71.904 105.912C71.892 105.648 71.76 105.276 71.592 105.024C72.456 105.108 73.308 105.108 73.62 105.108C73.884 105.108 74.052 105.096 74.184 104.976C74.568 104.628 74.808 103.284 75.012 99.996L75.024 99.84ZM70.344 97.476H71.34C71.16 100.656 70.812 104.256 67.152 106.008C67.02 105.78 66.732 105.456 66.504 105.276C70.008 103.692 70.212 100.344 70.344 97.476ZM71.484 94.896H72.408V97.368H71.484V94.896ZM79.176 96.996H88.308V97.884H80.064V105.96H79.176V96.996ZM87.972 96.996H88.872V104.772C88.872 105.36 88.74 105.66 88.32 105.804C87.888 105.948 87.132 105.972 86.04 105.972C85.992 105.708 85.86 105.288 85.716 105.036C86.592 105.072 87.42 105.072 87.672 105.06C87.912 105.048 87.972 104.988 87.972 104.76V96.996ZM83.256 94.896L84.372 95.088C84 95.94 83.544 96.912 83.184 97.548L82.32 97.344C82.656 96.672 83.052 95.628 83.256 94.896ZM81.648 99.468H82.476V104.304H81.648V99.468ZM82.032 99.468H86.352V103.44H82.032V102.636H85.512V100.284H82.032V99.468ZM95.46 96.9C96.768 97.128 99.204 97.08 100.392 96.9V97.872C99.108 98.016 96.78 98.016 95.472 97.872L95.46 96.9ZM95.928 101.796C95.82 102.228 95.76 102.564 95.76 102.888C95.76 103.44 96.144 103.98 97.788 103.98C98.856 103.98 99.792 103.884 100.752 103.656L100.776 104.664C100.032 104.82 99.024 104.916 97.776 104.916C95.772 104.916 94.872 104.244 94.872 103.116C94.872 102.72 94.932 102.288 95.064 101.712L95.928 101.796ZM93.18 95.976C93.108 96.18 93.012 96.564 92.964 96.78C92.736 97.896 92.364 100.032 92.364 101.388C92.364 101.964 92.4 102.468 92.472 103.056C92.676 102.516 92.952 101.796 93.156 101.304L93.66 101.7C93.36 102.552 92.916 103.812 92.808 104.388C92.772 104.556 92.748 104.784 92.748 104.928C92.76 105.048 92.772 105.216 92.784 105.348L91.932 105.408C91.692 104.556 91.488 103.176 91.488 101.544C91.488 99.78 91.884 97.728 92.028 96.732C92.064 96.456 92.1 96.156 92.112 95.892L93.18 95.976ZM109.704 94.932L110.604 95.088C109.908 96.252 108.828 97.404 107.208 98.292C107.088 98.1 106.824 97.812 106.632 97.68C108.132 96.924 109.176 95.856 109.704 94.932ZM109.416 95.976H112.332V96.72H108.888L109.416 95.976ZM112.02 95.976H112.188L112.344 95.928L112.92 96.204C111.972 98.724 109.728 100.152 107.316 100.848C107.232 100.632 107.004 100.296 106.848 100.116C109.068 99.576 111.228 98.22 112.02 96.12V95.976ZM108.168 97.572L108.744 97.116C109.404 97.5 110.184 98.1 110.568 98.544L109.968 99.048C109.608 98.616 108.816 97.98 108.168 97.572ZM110.34 99.444L111.252 99.6C110.484 100.908 109.236 102.192 107.364 103.152C107.244 102.948 106.98 102.66 106.788 102.528C108.552 101.7 109.752 100.5 110.34 99.444ZM110.004 100.584H112.872V101.352H109.464L110.004 100.584ZM112.608 100.584H112.788L112.956 100.548L113.532 100.8C112.512 103.836 109.956 105.312 107.052 105.972C106.956 105.744 106.752 105.396 106.596 105.204C109.308 104.688 111.756 103.296 112.608 100.728V100.584ZM108.432 102.384L109.044 101.88C109.812 102.3 110.712 102.972 111.144 103.464L110.508 104.028C110.088 103.524 109.2 102.84 108.432 102.384ZM104.544 95.916H105.42V105.936H104.544V95.916ZM102.576 98.304H106.932V99.156H102.576V98.304ZM104.592 98.628L105.156 98.868C104.676 100.56 103.716 102.66 102.792 103.776C102.708 103.524 102.492 103.152 102.336 102.948C103.2 101.988 104.16 100.116 104.592 98.628ZM106.32 95.1L106.956 95.796C105.852 96.24 104.172 96.576 102.78 96.768C102.732 96.564 102.612 96.276 102.504 96.072C103.86 95.844 105.444 95.508 106.32 95.1ZM105.384 99.852C105.684 100.116 106.812 101.256 107.052 101.556L106.524 102.264C106.236 101.772 105.336 100.632 104.964 100.212L105.384 99.852ZM114.828 102.768H120.3V103.452H114.828V102.768ZM114.504 96.984H120.492V97.68H114.504V96.984ZM117.108 95.892H117.936V104.724H117.108V95.892ZM114.492 104.748C115.956 104.616 118.2 104.4 120.348 104.172L120.36 104.88C118.32 105.12 116.148 105.372 114.624 105.528L114.492 104.748ZM115.608 100.524V101.412H119.496V100.524H115.608ZM115.608 99.06V99.924H119.496V99.06H115.608ZM114.852 98.436H120.264V102.036H114.852V98.436ZM119.832 95.04L120.288 95.736C118.872 96.048 116.64 96.252 114.84 96.312C114.804 96.12 114.72 95.82 114.624 95.64C116.412 95.544 118.596 95.328 119.832 95.04ZM120.408 97.728H124.74V98.568H120.408V97.728ZM124.392 97.728H125.256C125.256 97.728 125.244 98.064 125.244 98.184C125.112 103.248 124.992 104.928 124.596 105.444C124.38 105.756 124.14 105.864 123.78 105.9C123.444 105.936 122.868 105.936 122.316 105.9C122.292 105.648 122.196 105.276 122.052 105.036C122.64 105.084 123.168 105.096 123.408 105.096C123.6 105.096 123.72 105.06 123.828 104.904C124.128 104.532 124.26 102.804 124.392 97.944V97.728ZM121.86 95.076H122.724C122.712 99.852 122.7 103.884 119.832 106.032C119.688 105.816 119.376 105.528 119.16 105.384C121.908 103.416 121.848 99.612 121.86 95.076Z" fill="black"/>
<path d="M155.874 108.913C155.903 108.362 155.48 107.891 154.928 107.862L145.94 107.389C145.389 107.36 144.918 107.784 144.889 108.335C144.86 108.887 145.284 109.358 145.835 109.387L153.824 109.807L153.404 117.796C153.375 118.347 153.799 118.818 154.35 118.847C154.902 118.876 155.372 118.452 155.401 117.901L155.874 108.913ZM120.794 140.883L155.544 109.604L154.206 108.117L119.456 139.396L120.794 140.883Z" fill="black"/>
<path d="M67.2345 70.5691C67.2989 70.1554 67.5472 69.6778 67.9795 69.1362C68.4117 68.5945 68.9452 68.3188 69.5798 68.3089C69.9016 68.3089 70.196 68.3976 70.4627 68.5748C70.7294 68.7521 70.9271 68.9737 71.0559 69.2396C71.4421 68.6192 71.9066 68.3089 72.4492 68.3089C72.7895 68.3089 73.0838 68.4173 73.3321 68.6339C73.5804 68.8506 73.7092 69.1411 73.7184 69.5055C73.7184 69.7911 73.654 70.0225 73.5253 70.1998C73.3965 70.377 73.2723 70.4854 73.1528 70.5247C73.0332 70.5641 72.9275 70.5838 72.8355 70.5838C72.6607 70.5838 72.5182 70.5297 72.4078 70.4213C72.2975 70.313 72.2423 70.1702 72.2423 69.9929C72.2423 69.5399 72.4722 69.2297 72.9321 69.0623C72.8309 68.9343 72.647 68.8703 72.3802 68.8703C72.2607 68.8703 72.1733 68.8801 72.1181 68.8998C71.7686 69.0574 71.5111 69.3824 71.3456 69.8748C70.7938 72.0512 70.5178 73.3216 70.5178 73.686C70.5178 73.9617 70.5914 74.1587 70.7386 74.2768C70.8857 74.395 71.0467 74.4541 71.2214 74.4541C71.5617 74.4541 71.8974 74.2916 72.2285 73.9666C72.5596 73.6416 72.7849 73.2428 72.9045 72.7701C72.9321 72.6716 72.9596 72.6174 72.9872 72.6076C73.0148 72.5978 73.0884 72.5879 73.208 72.5781H73.2631C73.4011 72.5781 73.4701 72.6174 73.4701 72.6962C73.4701 72.7061 73.4609 72.7602 73.4425 72.8587C73.2953 73.4201 73.0102 73.9174 72.5872 74.3507C72.1641 74.784 71.6721 75.0007 71.1111 75.0007C70.4673 75.0007 69.9798 74.6905 69.6487 74.07C69.2717 74.6806 68.8394 74.9859 68.352 74.9859H68.2692C67.8185 74.9859 67.4966 74.8579 67.3035 74.6018C67.1104 74.3458 67.0092 74.075 67 73.7894C67 73.4742 67.0874 73.2182 67.2621 73.0212C67.4369 72.8243 67.6438 72.7258 67.8829 72.7258C68.2784 72.7258 68.4761 72.9326 68.4761 73.3462C68.4761 73.5432 68.4209 73.7155 68.3106 73.8632C68.2002 74.0109 68.0944 74.1094 67.9933 74.1587C67.8921 74.2079 67.8323 74.2325 67.8139 74.2325L67.7725 74.2473C67.7725 74.2571 67.8001 74.2768 67.8553 74.3064C67.9105 74.3359 67.9841 74.3704 68.076 74.4098C68.168 74.4492 68.2554 74.464 68.3382 74.4541C68.6693 74.4541 68.9544 74.2325 69.1935 73.7894C69.2763 73.6318 69.382 73.297 69.5108 72.7849C69.6395 72.2728 69.7683 71.741 69.8971 71.1895C70.0258 70.638 70.0994 70.313 70.1178 70.2145C70.1638 69.9486 70.1868 69.7566 70.1868 69.6384C70.1868 69.3627 70.1178 69.1657 69.9798 69.0475C69.8419 68.9294 69.6855 68.8703 69.5108 68.8703C69.1429 68.8703 68.798 69.0278 68.4761 69.343C68.1542 69.6581 67.9289 70.0619 67.8001 70.5543C67.7817 70.6429 67.7588 70.6922 67.7312 70.702C67.7036 70.7119 67.63 70.7217 67.5104 70.7316H67.3173C67.2621 70.6725 67.2345 70.6183 67.2345 70.5691Z" fill="black"/>
<path d="M79.0131 69.7123C79.0131 69.5843 79.0774 69.4858 79.2062 69.4168H87.9939C88.1319 69.4956 88.2009 69.5941 88.2009 69.7123C88.2009 69.8206 88.1365 69.9142 88.0077 69.993L83.6208 70.0077H79.2338C79.0866 69.9585 79.0131 69.86 79.0131 69.7123ZM79.0131 72.5781C79.0131 72.4303 79.0866 72.3319 79.2338 72.2826H88.0077C88.1365 72.3811 88.2009 72.4796 88.2009 72.5781C88.2009 72.7061 88.1319 72.8046 87.9939 72.8735H79.2062C79.0774 72.8046 79.0131 72.7061 79.0131 72.5781Z" fill="black"/>
<path d="M94.3095 68.501C94.0612 68.501 93.8635 68.4124 93.7163 68.2351C93.5692 68.0578 93.4956 67.8412 93.4956 67.5851C93.4956 66.8859 93.7393 66.2803 94.2268 65.7682C94.7142 65.2561 95.3212 65 96.0478 65C96.8847 65 97.5837 65.2758 98.1447 65.8273C98.7057 66.3787 98.9908 67.0927 99 67.9692C99 68.3927 98.908 68.7964 98.7241 69.1805C98.5402 69.5646 98.3194 69.8994 98.0619 70.185C97.8044 70.4706 97.4365 70.835 96.9583 71.2781C96.6272 71.5834 96.1673 72.0364 95.5787 72.6372L94.7648 73.4644L95.8132 73.4792C97.2572 73.4792 98.0251 73.4545 98.1171 73.4053C98.1815 73.3856 98.2918 72.9474 98.4482 72.0906V72.0463H99V72.0906C98.9908 72.1201 98.931 72.5682 98.8207 73.4349C98.7103 74.3015 98.6413 74.7545 98.6137 74.7939V74.8382H93.4956V74.5575V74.3803C93.4956 74.3113 93.5232 74.2375 93.5784 74.1587C93.6336 74.0799 93.7715 73.9076 93.9922 73.6417C94.259 73.3265 94.4889 73.0508 94.682 72.8144C94.7648 72.7159 94.9211 72.5338 95.1511 72.2679C95.381 72.002 95.5373 71.8198 95.6201 71.7213C95.7029 71.6228 95.8362 71.4603 96.0202 71.2338C96.2041 71.0073 96.3329 70.8399 96.4065 70.7316C96.48 70.6232 96.5858 70.4755 96.7237 70.2884C96.8617 70.1013 96.9583 69.9437 97.0135 69.8157C97.0686 69.6877 97.1376 69.5449 97.2204 69.3873C97.3032 69.2297 97.3629 69.0722 97.3997 68.9146C97.4365 68.757 97.4687 68.6093 97.4963 68.4714C97.5239 68.3336 97.5377 68.1711 97.5377 67.984C97.5377 67.3635 97.3813 66.8268 97.0686 66.3738C96.7559 65.9208 96.3099 65.6943 95.7305 65.6943C95.427 65.6943 95.1603 65.778 94.9303 65.9454C94.7004 66.1128 94.5395 66.2753 94.4475 66.4329C94.3555 66.5905 94.3095 66.684 94.3095 66.7136C94.3095 66.7234 94.3325 66.7283 94.3785 66.7283C94.5441 66.7283 94.7142 66.7973 94.8889 66.9352C95.0637 67.073 95.1511 67.2995 95.1511 67.6147C95.1511 67.8609 95.0775 68.0677 94.9303 68.2351C94.7832 68.4025 94.5763 68.4911 94.3095 68.501Z" fill="black"/>
</svg>
