<svg width="377" height="299" viewBox="0 0 377 299" fill="none" xmlns="http://www.w3.org/2000/svg">
<rect x="32" y="10" width="273" height="245" fill="#30F210"/>
<path d="M31.5 255.5C163.5 59.9 268.833 116 305 168.5" stroke="black"/>
<rect x="32" width="273" height="118" fill="#76E6FF"/>
<path d="M121 115L32 255L32 115H121Z" fill="#76E6FF"/>
<path d="M147 118L94 175L49 228L118.082 118H147Z" fill="#76E6FF"/>
<path d="M192 115L183.666 121.122L163.5 129L153.5 133L143 139L128.5 148.5L115 158.5L98 174L80.5 191.5L94 175L148.245 115H192Z" fill="#76E6FF"/>
<path d="M207.262 118.118L200.5 119L196 119.5L191.336 120.186L184.807 121.461L162 129L179.91 122.539L187.5 118L207.262 118.118Z" fill="#76E6FF"/>
<path d="M304.947 117L304.947 167L294.5 154L281 141.5L266.5 132L252 125L245.5 123L240 121.5L221.5 118L304.947 117Z" fill="#76E6FF"/>
<path d="M344.064 270.058C344.648 269.47 344.645 268.52 344.058 267.936L334.484 258.418C333.896 257.834 332.946 257.837 332.362 258.424C331.778 259.012 331.781 259.962 332.369 260.546L340.879 269.006L332.418 277.516C331.834 278.104 331.837 279.053 332.424 279.638C333.012 280.222 333.962 280.219 334.546 279.631L344.064 270.058ZM1.00439 271.5L343.004 270.5L342.996 267.5L0.995614 268.5L1.00439 271.5Z" fill="black"/>
<path d="M345.227 290.273L347.318 293.841L349.409 290.273H350.955L348.136 294.636L350.955 299H349.409L347.318 295.614L345.227 299H343.682L346.455 294.636L343.682 290.273H345.227Z" fill="black"/>
<circle cx="84.5" cy="153.5" r="12.5" fill="#FAFF00"/>
<rect x="76" y="160" width="17" height="21" fill="#FAFF00"/>
</svg>
